<?xml version="1.0" encoding="utf-8" standalone="no"?>
<!DOCTYPE svg PUBLIC "-//W3C//DTD SVG 1.1//EN"
  "http://www.w3.org/Graphics/SVG/1.1/DTD/svg11.dtd">
<svg xmlns:xlink="http://www.w3.org/1999/xlink" width="1143.669375pt" height="442.491875pt" viewBox="0 0 1143.669375 442.491875" xmlns="http://www.w3.org/2000/svg" version="1.1">
 <metadata>
  <rdf:RDF xmlns:dc="http://purl.org/dc/elements/1.1/" xmlns:cc="http://creativecommons.org/ns#" xmlns:rdf="http://www.w3.org/1999/02/22-rdf-syntax-ns#">
   <cc:Work>
    <dc:type rdf:resource="http://purl.org/dc/dcmitype/StillImage"/>
    <dc:date>2026-02-23T01:10:13.699287</dc:date>
    <dc:format>image/svg+xml</dc:format>
    <dc:creator>
     <cc:Agent>
      <dc:title>Matplotlib v3.9.4, https://matplotlib.org/</dc:title>
     </cc:Agent>
    </dc:creator>
   </cc:Work>
  </rdf:RDF>
 </metadata>
 <defs>
  <style type="text/css">*{stroke-linejoin: round; stroke-linecap: butt}</style>
 </defs>
 <g id="figure_1">
  <g id="patch_1">
   <path d="M 0 442.491875 
L 1143.669375 442.491875 
L 1143.669375 -0 
L 0 -0 
z
" style="fill: #fafafa"/>
  </g>
  <g id="axes_1">
   <g id="patch_2">
    <path d="M 52.079375 403 
L 567.399375 403 
L 567.399375 70.8 
L 52.079375 70.8 
z
" style="fill: #fafafa"/>
   </g>
   <g id="matplotlib.axis_1">
    <g id="xtick_1">
     <g id="line2d_1">
      <defs>
       <path id="mbda34c5aa8" d="M 0 0 
L 0 3.5 
" style="stroke: #000000; stroke-width: 0.8"/>
      </defs>
      <g>
       <use xlink:href="#mbda34c5aa8" x="69.172299" y="403" style="stroke: #000000; stroke-width: 0.8"/>
      </g>
     </g>
     <g id="text_1">
      <!-- 1950 -->
      <g transform="translate(56.447299 417.598437) scale(0.1 -0.1)">
       <defs>
        <path id="DejaVuSans-31" d="M 794 531 
L 1825 531 
L 1825 4091 
L 703 3866 
L 703 4441 
L 1819 4666 
L 2450 4666 
L 2450 531 
L 3481 531 
L 3481 0 
L 794 0 
L 794 531 
z
" transform="scale(0.015625)"/>
        <path id="DejaVuSans-39" d="M 703 97 
L 703 672 
Q 941 559 1184 500 
Q 1428 441 1663 441 
Q 2288 441 2617 861 
Q 2947 1281 2994 2138 
Q 2813 1869 2534 1725 
Q 2256 1581 1919 1581 
Q 1219 1581 811 2004 
Q 403 2428 403 3163 
Q 403 3881 828 4315 
Q 1253 4750 1959 4750 
Q 2769 4750 3195 4129 
Q 3622 3509 3622 2328 
Q 3622 1225 3098 567 
Q 2575 -91 1691 -91 
Q 1453 -91 1209 -44 
Q 966 3 703 97 
z
M 1959 2075 
Q 2384 2075 2632 2365 
Q 2881 2656 2881 3163 
Q 2881 3666 2632 3958 
Q 2384 4250 1959 4250 
Q 1534 4250 1286 3958 
Q 1038 3666 1038 3163 
Q 1038 2656 1286 2365 
Q 1534 2075 1959 2075 
z
" transform="scale(0.015625)"/>
        <path id="DejaVuSans-35" d="M 691 4666 
L 3169 4666 
L 3169 4134 
L 1269 4134 
L 1269 2991 
Q 1406 3038 1543 3061 
Q 1681 3084 1819 3084 
Q 2600 3084 3056 2656 
Q 3513 2228 3513 1497 
Q 3513 744 3044 326 
Q 2575 -91 1722 -91 
Q 1428 -91 1123 -41 
Q 819 9 494 109 
L 494 744 
Q 775 591 1075 516 
Q 1375 441 1709 441 
Q 2250 441 2565 725 
Q 2881 1009 2881 1497 
Q 2881 1984 2565 2268 
Q 2250 2553 1709 2553 
Q 1456 2553 1204 2497 
Q 953 2441 691 2322 
L 691 4666 
z
" transform="scale(0.015625)"/>
        <path id="DejaVuSans-30" d="M 2034 4250 
Q 1547 4250 1301 3770 
Q 1056 3291 1056 2328 
Q 1056 1369 1301 889 
Q 1547 409 2034 409 
Q 2525 409 2770 889 
Q 3016 1369 3016 2328 
Q 3016 3291 2770 3770 
Q 2525 4250 2034 4250 
z
M 2034 4750 
Q 2819 4750 3233 4129 
Q 3647 3509 3647 2328 
Q 3647 1150 3233 529 
Q 2819 -91 2034 -91 
Q 1250 -91 836 529 
Q 422 1150 422 2328 
Q 422 3509 836 4129 
Q 1250 4750 2034 4750 
z
" transform="scale(0.015625)"/>
       </defs>
       <use xlink:href="#DejaVuSans-31"/>
       <use xlink:href="#DejaVuSans-39" x="63.623047"/>
       <use xlink:href="#DejaVuSans-35" x="127.246094"/>
       <use xlink:href="#DejaVuSans-30" x="190.869141"/>
      </g>
     </g>
    </g>
    <g id="xtick_2">
     <g id="line2d_2">
      <g>
       <use xlink:href="#mbda34c5aa8" x="132.479424" y="403" style="stroke: #000000; stroke-width: 0.8"/>
      </g>
     </g>
     <g id="text_2">
      <!-- 1960 -->
      <g transform="translate(119.754424 417.598437) scale(0.1 -0.1)">
       <defs>
        <path id="DejaVuSans-36" d="M 2113 2584 
Q 1688 2584 1439 2293 
Q 1191 2003 1191 1497 
Q 1191 994 1439 701 
Q 1688 409 2113 409 
Q 2538 409 2786 701 
Q 3034 994 3034 1497 
Q 3034 2003 2786 2293 
Q 2538 2584 2113 2584 
z
M 3366 4563 
L 3366 3988 
Q 3128 4100 2886 4159 
Q 2644 4219 2406 4219 
Q 1781 4219 1451 3797 
Q 1122 3375 1075 2522 
Q 1259 2794 1537 2939 
Q 1816 3084 2150 3084 
Q 2853 3084 3261 2657 
Q 3669 2231 3669 1497 
Q 3669 778 3244 343 
Q 2819 -91 2113 -91 
Q 1303 -91 875 529 
Q 447 1150 447 2328 
Q 447 3434 972 4092 
Q 1497 4750 2381 4750 
Q 2619 4750 2861 4703 
Q 3103 4656 3366 4563 
z
" transform="scale(0.015625)"/>
       </defs>
       <use xlink:href="#DejaVuSans-31"/>
       <use xlink:href="#DejaVuSans-39" x="63.623047"/>
       <use xlink:href="#DejaVuSans-36" x="127.246094"/>
       <use xlink:href="#DejaVuSans-30" x="190.869141"/>
      </g>
     </g>
    </g>
    <g id="xtick_3">
     <g id="line2d_3">
      <g>
       <use xlink:href="#mbda34c5aa8" x="195.786549" y="403" style="stroke: #000000; stroke-width: 0.8"/>
      </g>
     </g>
     <g id="text_3">
      <!-- 1970 -->
      <g transform="translate(183.061549 417.598437) scale(0.1 -0.1)">
       <defs>
        <path id="DejaVuSans-37" d="M 525 4666 
L 3525 4666 
L 3525 4397 
L 1831 0 
L 1172 0 
L 2766 4134 
L 525 4134 
L 525 4666 
z
" transform="scale(0.015625)"/>
       </defs>
       <use xlink:href="#DejaVuSans-31"/>
       <use xlink:href="#DejaVuSans-39" x="63.623047"/>
       <use xlink:href="#DejaVuSans-37" x="127.246094"/>
       <use xlink:href="#DejaVuSans-30" x="190.869141"/>
      </g>
     </g>
    </g>
    <g id="xtick_4">
     <g id="line2d_4">
      <g>
       <use xlink:href="#mbda34c5aa8" x="259.093675" y="403" style="stroke: #000000; stroke-width: 0.8"/>
      </g>
     </g>
     <g id="text_4">
      <!-- 1980 -->
      <g transform="translate(246.368675 417.598437) scale(0.1 -0.1)">
       <defs>
        <path id="DejaVuSans-38" d="M 2034 2216 
Q 1584 2216 1326 1975 
Q 1069 1734 1069 1313 
Q 1069 891 1326 650 
Q 1584 409 2034 409 
Q 2484 409 2743 651 
Q 3003 894 3003 1313 
Q 3003 1734 2745 1975 
Q 2488 2216 2034 2216 
z
M 1403 2484 
Q 997 2584 770 2862 
Q 544 3141 544 3541 
Q 544 4100 942 4425 
Q 1341 4750 2034 4750 
Q 2731 4750 3128 4425 
Q 3525 4100 3525 3541 
Q 3525 3141 3298 2862 
Q 3072 2584 2669 2484 
Q 3125 2378 3379 2068 
Q 3634 1759 3634 1313 
Q 3634 634 3220 271 
Q 2806 -91 2034 -91 
Q 1263 -91 848 271 
Q 434 634 434 1313 
Q 434 1759 690 2068 
Q 947 2378 1403 2484 
z
M 1172 3481 
Q 1172 3119 1398 2916 
Q 1625 2713 2034 2713 
Q 2441 2713 2670 2916 
Q 2900 3119 2900 3481 
Q 2900 3844 2670 4047 
Q 2441 4250 2034 4250 
Q 1625 4250 1398 4047 
Q 1172 3844 1172 3481 
z
" transform="scale(0.015625)"/>
       </defs>
       <use xlink:href="#DejaVuSans-31"/>
       <use xlink:href="#DejaVuSans-39" x="63.623047"/>
       <use xlink:href="#DejaVuSans-38" x="127.246094"/>
       <use xlink:href="#DejaVuSans-30" x="190.869141"/>
      </g>
     </g>
    </g>
    <g id="xtick_5">
     <g id="line2d_5">
      <g>
       <use xlink:href="#mbda34c5aa8" x="322.4008" y="403" style="stroke: #000000; stroke-width: 0.8"/>
      </g>
     </g>
     <g id="text_5">
      <!-- 1990 -->
      <g transform="translate(309.6758 417.598437) scale(0.1 -0.1)">
       <use xlink:href="#DejaVuSans-31"/>
       <use xlink:href="#DejaVuSans-39" x="63.623047"/>
       <use xlink:href="#DejaVuSans-39" x="127.246094"/>
       <use xlink:href="#DejaVuSans-30" x="190.869141"/>
      </g>
     </g>
    </g>
    <g id="xtick_6">
     <g id="line2d_6">
      <g>
       <use xlink:href="#mbda34c5aa8" x="385.707925" y="403" style="stroke: #000000; stroke-width: 0.8"/>
      </g>
     </g>
     <g id="text_6">
      <!-- 2000 -->
      <g transform="translate(372.982925 417.598437) scale(0.1 -0.1)">
       <defs>
        <path id="DejaVuSans-32" d="M 1228 531 
L 3431 531 
L 3431 0 
L 469 0 
L 469 531 
Q 828 903 1448 1529 
Q 2069 2156 2228 2338 
Q 2531 2678 2651 2914 
Q 2772 3150 2772 3378 
Q 2772 3750 2511 3984 
Q 2250 4219 1831 4219 
Q 1534 4219 1204 4116 
Q 875 4013 500 3803 
L 500 4441 
Q 881 4594 1212 4672 
Q 1544 4750 1819 4750 
Q 2544 4750 2975 4387 
Q 3406 4025 3406 3419 
Q 3406 3131 3298 2873 
Q 3191 2616 2906 2266 
Q 2828 2175 2409 1742 
Q 1991 1309 1228 531 
z
" transform="scale(0.015625)"/>
       </defs>
       <use xlink:href="#DejaVuSans-32"/>
       <use xlink:href="#DejaVuSans-30" x="63.623047"/>
       <use xlink:href="#DejaVuSans-30" x="127.246094"/>
       <use xlink:href="#DejaVuSans-30" x="190.869141"/>
      </g>
     </g>
    </g>
    <g id="xtick_7">
     <g id="line2d_7">
      <g>
       <use xlink:href="#mbda34c5aa8" x="449.015051" y="403" style="stroke: #000000; stroke-width: 0.8"/>
      </g>
     </g>
     <g id="text_7">
      <!-- 2010 -->
      <g transform="translate(436.290051 417.598437) scale(0.1 -0.1)">
       <use xlink:href="#DejaVuSans-32"/>
       <use xlink:href="#DejaVuSans-30" x="63.623047"/>
       <use xlink:href="#DejaVuSans-31" x="127.246094"/>
       <use xlink:href="#DejaVuSans-30" x="190.869141"/>
      </g>
     </g>
    </g>
    <g id="xtick_8">
     <g id="line2d_8">
      <g>
       <use xlink:href="#mbda34c5aa8" x="512.322176" y="403" style="stroke: #000000; stroke-width: 0.8"/>
      </g>
     </g>
     <g id="text_8">
      <!-- 2020 -->
      <g transform="translate(499.597176 417.598437) scale(0.1 -0.1)">
       <use xlink:href="#DejaVuSans-32"/>
       <use xlink:href="#DejaVuSans-30" x="63.623047"/>
       <use xlink:href="#DejaVuSans-32" x="127.246094"/>
       <use xlink:href="#DejaVuSans-30" x="190.869141"/>
      </g>
     </g>
    </g>
    <g id="text_9">
     <!-- Year -->
     <g transform="translate(297.034375 432.79625) scale(0.12 -0.12)">
      <defs>
       <path id="DejaVuSans-59" d="M -13 4666 
L 666 4666 
L 1959 2747 
L 3244 4666 
L 3922 4666 
L 2272 2222 
L 2272 0 
L 1638 0 
L 1638 2222 
L -13 4666 
z
" transform="scale(0.015625)"/>
       <path id="DejaVuSans-65" d="M 3597 1894 
L 3597 1613 
L 953 1613 
Q 991 1019 1311 708 
Q 1631 397 2203 397 
Q 2534 397 2845 478 
Q 3156 559 3463 722 
L 3463 178 
Q 3153 47 2828 -22 
Q 2503 -91 2169 -91 
Q 1331 -91 842 396 
Q 353 884 353 1716 
Q 353 2575 817 3079 
Q 1281 3584 2069 3584 
Q 2775 3584 3186 3129 
Q 3597 2675 3597 1894 
z
M 3022 2063 
Q 3016 2534 2758 2815 
Q 2500 3097 2075 3097 
Q 1594 3097 1305 2825 
Q 1016 2553 972 2059 
L 3022 2063 
z
" transform="scale(0.015625)"/>
       <path id="DejaVuSans-61" d="M 2194 1759 
Q 1497 1759 1228 1600 
Q 959 1441 959 1056 
Q 959 750 1161 570 
Q 1363 391 1709 391 
Q 2188 391 2477 730 
Q 2766 1069 2766 1631 
L 2766 1759 
L 2194 1759 
z
M 3341 1997 
L 3341 0 
L 2766 0 
L 2766 531 
Q 2569 213 2275 61 
Q 1981 -91 1556 -91 
Q 1019 -91 701 211 
Q 384 513 384 1019 
Q 384 1609 779 1909 
Q 1175 2209 1959 2209 
L 2766 2209 
L 2766 2266 
Q 2766 2663 2505 2880 
Q 2244 3097 1772 3097 
Q 1472 3097 1187 3025 
Q 903 2953 641 2809 
L 641 3341 
Q 956 3463 1253 3523 
Q 1550 3584 1831 3584 
Q 2591 3584 2966 3190 
Q 3341 2797 3341 1997 
z
" transform="scale(0.015625)"/>
       <path id="DejaVuSans-72" d="M 2631 2963 
Q 2534 3019 2420 3045 
Q 2306 3072 2169 3072 
Q 1681 3072 1420 2755 
Q 1159 2438 1159 1844 
L 1159 0 
L 581 0 
L 581 3500 
L 1159 3500 
L 1159 2956 
Q 1341 3275 1631 3429 
Q 1922 3584 2338 3584 
Q 2397 3584 2469 3576 
Q 2541 3569 2628 3553 
L 2631 2963 
z
" transform="scale(0.015625)"/>
      </defs>
      <use xlink:href="#DejaVuSans-59"/>
      <use xlink:href="#DejaVuSans-65" x="47.833984"/>
      <use xlink:href="#DejaVuSans-61" x="109.357422"/>
      <use xlink:href="#DejaVuSans-72" x="170.636719"/>
     </g>
    </g>
   </g>
   <g id="matplotlib.axis_2">
    <g id="ytick_1">
     <g id="line2d_9">
      <path d="M 52.079375 396.337742 
L 567.399375 396.337742 
" clip-path="url(#pdade1d660f)" style="fill: none; stroke: #b0b0b0; stroke-opacity: 0.3; stroke-width: 0.8; stroke-linecap: square"/>
     </g>
     <g id="line2d_10">
      <defs>
       <path id="m6fe967002d" d="M 0 0 
L -3.5 0 
" style="stroke: #000000; stroke-width: 0.8"/>
      </defs>
      <g>
       <use xlink:href="#m6fe967002d" x="52.079375" y="396.337742" style="stroke: #000000; stroke-width: 0.8"/>
      </g>
     </g>
     <g id="text_10">
      <!-- 0.35 -->
      <g transform="translate(22.81375 400.136961) scale(0.1 -0.1)">
       <defs>
        <path id="DejaVuSans-2e" d="M 684 794 
L 1344 794 
L 1344 0 
L 684 0 
L 684 794 
z
" transform="scale(0.015625)"/>
        <path id="DejaVuSans-33" d="M 2597 2516 
Q 3050 2419 3304 2112 
Q 3559 1806 3559 1356 
Q 3559 666 3084 287 
Q 2609 -91 1734 -91 
Q 1441 -91 1130 -33 
Q 819 25 488 141 
L 488 750 
Q 750 597 1062 519 
Q 1375 441 1716 441 
Q 2309 441 2620 675 
Q 2931 909 2931 1356 
Q 2931 1769 2642 2001 
Q 2353 2234 1838 2234 
L 1294 2234 
L 1294 2753 
L 1863 2753 
Q 2328 2753 2575 2939 
Q 2822 3125 2822 3475 
Q 2822 3834 2567 4026 
Q 2313 4219 1838 4219 
Q 1578 4219 1281 4162 
Q 984 4106 628 3988 
L 628 4550 
Q 988 4650 1302 4700 
Q 1616 4750 1894 4750 
Q 2613 4750 3031 4423 
Q 3450 4097 3450 3541 
Q 3450 3153 3228 2886 
Q 3006 2619 2597 2516 
z
" transform="scale(0.015625)"/>
       </defs>
       <use xlink:href="#DejaVuSans-30"/>
       <use xlink:href="#DejaVuSans-2e" x="63.623047"/>
       <use xlink:href="#DejaVuSans-33" x="95.410156"/>
       <use xlink:href="#DejaVuSans-35" x="159.033203"/>
      </g>
     </g>
    </g>
    <g id="ytick_2">
     <g id="line2d_11">
      <path d="M 52.079375 325.717843 
L 567.399375 325.717843 
" clip-path="url(#pdade1d660f)" style="fill: none; stroke: #b0b0b0; stroke-opacity: 0.3; stroke-width: 0.8; stroke-linecap: square"/>
     </g>
     <g id="line2d_12">
      <g>
       <use xlink:href="#m6fe967002d" x="52.079375" y="325.717843" style="stroke: #000000; stroke-width: 0.8"/>
      </g>
     </g>
     <g id="text_11">
      <!-- 0.40 -->
      <g transform="translate(22.81375 329.517062) scale(0.1 -0.1)">
       <defs>
        <path id="DejaVuSans-34" d="M 2419 4116 
L 825 1625 
L 2419 1625 
L 2419 4116 
z
M 2253 4666 
L 3047 4666 
L 3047 1625 
L 3713 1625 
L 3713 1100 
L 3047 1100 
L 3047 0 
L 2419 0 
L 2419 1100 
L 313 1100 
L 313 1709 
L 2253 4666 
z
" transform="scale(0.015625)"/>
       </defs>
       <use xlink:href="#DejaVuSans-30"/>
       <use xlink:href="#DejaVuSans-2e" x="63.623047"/>
       <use xlink:href="#DejaVuSans-34" x="95.410156"/>
       <use xlink:href="#DejaVuSans-30" x="159.033203"/>
      </g>
     </g>
    </g>
    <g id="ytick_3">
     <g id="line2d_13">
      <path d="M 52.079375 255.097944 
L 567.399375 255.097944 
" clip-path="url(#pdade1d660f)" style="fill: none; stroke: #b0b0b0; stroke-opacity: 0.3; stroke-width: 0.8; stroke-linecap: square"/>
     </g>
     <g id="line2d_14">
      <g>
       <use xlink:href="#m6fe967002d" x="52.079375" y="255.097944" style="stroke: #000000; stroke-width: 0.8"/>
      </g>
     </g>
     <g id="text_12">
      <!-- 0.45 -->
      <g transform="translate(22.81375 258.897163) scale(0.1 -0.1)">
       <use xlink:href="#DejaVuSans-30"/>
       <use xlink:href="#DejaVuSans-2e" x="63.623047"/>
       <use xlink:href="#DejaVuSans-34" x="95.410156"/>
       <use xlink:href="#DejaVuSans-35" x="159.033203"/>
      </g>
     </g>
    </g>
    <g id="ytick_4">
     <g id="line2d_15">
      <path d="M 52.079375 184.478045 
L 567.399375 184.478045 
" clip-path="url(#pdade1d660f)" style="fill: none; stroke: #b0b0b0; stroke-opacity: 0.3; stroke-width: 0.8; stroke-linecap: square"/>
     </g>
     <g id="line2d_16">
      <g>
       <use xlink:href="#m6fe967002d" x="52.079375" y="184.478045" style="stroke: #000000; stroke-width: 0.8"/>
      </g>
     </g>
     <g id="text_13">
      <!-- 0.50 -->
      <g transform="translate(22.81375 188.277264) scale(0.1 -0.1)">
       <use xlink:href="#DejaVuSans-30"/>
       <use xlink:href="#DejaVuSans-2e" x="63.623047"/>
       <use xlink:href="#DejaVuSans-35" x="95.410156"/>
       <use xlink:href="#DejaVuSans-30" x="159.033203"/>
      </g>
     </g>
    </g>
    <g id="ytick_5">
     <g id="line2d_17">
      <path d="M 52.079375 113.858146 
L 567.399375 113.858146 
" clip-path="url(#pdade1d660f)" style="fill: none; stroke: #b0b0b0; stroke-opacity: 0.3; stroke-width: 0.8; stroke-linecap: square"/>
     </g>
     <g id="line2d_18">
      <g>
       <use xlink:href="#m6fe967002d" x="52.079375" y="113.858146" style="stroke: #000000; stroke-width: 0.8"/>
      </g>
     </g>
     <g id="text_14">
      <!-- 0.55 -->
      <g transform="translate(22.81375 117.657365) scale(0.1 -0.1)">
       <use xlink:href="#DejaVuSans-30"/>
       <use xlink:href="#DejaVuSans-2e" x="63.623047"/>
       <use xlink:href="#DejaVuSans-35" x="95.410156"/>
       <use xlink:href="#DejaVuSans-35" x="159.033203"/>
      </g>
     </g>
    </g>
    <g id="text_15">
     <!-- Type-Token Ratio (TTR) -->
     <g transform="translate(16.318125 304.654062) rotate(-90) scale(0.12 -0.12)">
      <defs>
       <path id="DejaVuSans-54" d="M -19 4666 
L 3928 4666 
L 3928 4134 
L 2272 4134 
L 2272 0 
L 1638 0 
L 1638 4134 
L -19 4134 
L -19 4666 
z
" transform="scale(0.015625)"/>
       <path id="DejaVuSans-79" d="M 2059 -325 
Q 1816 -950 1584 -1140 
Q 1353 -1331 966 -1331 
L 506 -1331 
L 506 -850 
L 844 -850 
Q 1081 -850 1212 -737 
Q 1344 -625 1503 -206 
L 1606 56 
L 191 3500 
L 800 3500 
L 1894 763 
L 2988 3500 
L 3597 3500 
L 2059 -325 
z
" transform="scale(0.015625)"/>
       <path id="DejaVuSans-70" d="M 1159 525 
L 1159 -1331 
L 581 -1331 
L 581 3500 
L 1159 3500 
L 1159 2969 
Q 1341 3281 1617 3432 
Q 1894 3584 2278 3584 
Q 2916 3584 3314 3078 
Q 3713 2572 3713 1747 
Q 3713 922 3314 415 
Q 2916 -91 2278 -91 
Q 1894 -91 1617 61 
Q 1341 213 1159 525 
z
M 3116 1747 
Q 3116 2381 2855 2742 
Q 2594 3103 2138 3103 
Q 1681 3103 1420 2742 
Q 1159 2381 1159 1747 
Q 1159 1113 1420 752 
Q 1681 391 2138 391 
Q 2594 391 2855 752 
Q 3116 1113 3116 1747 
z
" transform="scale(0.015625)"/>
       <path id="DejaVuSans-2d" d="M 313 2009 
L 1997 2009 
L 1997 1497 
L 313 1497 
L 313 2009 
z
" transform="scale(0.015625)"/>
       <path id="DejaVuSans-6f" d="M 1959 3097 
Q 1497 3097 1228 2736 
Q 959 2375 959 1747 
Q 959 1119 1226 758 
Q 1494 397 1959 397 
Q 2419 397 2687 759 
Q 2956 1122 2956 1747 
Q 2956 2369 2687 2733 
Q 2419 3097 1959 3097 
z
M 1959 3584 
Q 2709 3584 3137 3096 
Q 3566 2609 3566 1747 
Q 3566 888 3137 398 
Q 2709 -91 1959 -91 
Q 1206 -91 779 398 
Q 353 888 353 1747 
Q 353 2609 779 3096 
Q 1206 3584 1959 3584 
z
" transform="scale(0.015625)"/>
       <path id="DejaVuSans-6b" d="M 581 4863 
L 1159 4863 
L 1159 1991 
L 2875 3500 
L 3609 3500 
L 1753 1863 
L 3688 0 
L 2938 0 
L 1159 1709 
L 1159 0 
L 581 0 
L 581 4863 
z
" transform="scale(0.015625)"/>
       <path id="DejaVuSans-6e" d="M 3513 2113 
L 3513 0 
L 2938 0 
L 2938 2094 
Q 2938 2591 2744 2837 
Q 2550 3084 2163 3084 
Q 1697 3084 1428 2787 
Q 1159 2491 1159 1978 
L 1159 0 
L 581 0 
L 581 3500 
L 1159 3500 
L 1159 2956 
Q 1366 3272 1645 3428 
Q 1925 3584 2291 3584 
Q 2894 3584 3203 3211 
Q 3513 2838 3513 2113 
z
" transform="scale(0.015625)"/>
       <path id="DejaVuSans-20" transform="scale(0.015625)"/>
       <path id="DejaVuSans-52" d="M 2841 2188 
Q 3044 2119 3236 1894 
Q 3428 1669 3622 1275 
L 4263 0 
L 3584 0 
L 2988 1197 
Q 2756 1666 2539 1819 
Q 2322 1972 1947 1972 
L 1259 1972 
L 1259 0 
L 628 0 
L 628 4666 
L 2053 4666 
Q 2853 4666 3247 4331 
Q 3641 3997 3641 3322 
Q 3641 2881 3436 2590 
Q 3231 2300 2841 2188 
z
M 1259 4147 
L 1259 2491 
L 2053 2491 
Q 2509 2491 2742 2702 
Q 2975 2913 2975 3322 
Q 2975 3731 2742 3939 
Q 2509 4147 2053 4147 
L 1259 4147 
z
" transform="scale(0.015625)"/>
       <path id="DejaVuSans-74" d="M 1172 4494 
L 1172 3500 
L 2356 3500 
L 2356 3053 
L 1172 3053 
L 1172 1153 
Q 1172 725 1289 603 
Q 1406 481 1766 481 
L 2356 481 
L 2356 0 
L 1766 0 
Q 1100 0 847 248 
Q 594 497 594 1153 
L 594 3053 
L 172 3053 
L 172 3500 
L 594 3500 
L 594 4494 
L 1172 4494 
z
" transform="scale(0.015625)"/>
       <path id="DejaVuSans-69" d="M 603 3500 
L 1178 3500 
L 1178 0 
L 603 0 
L 603 3500 
z
M 603 4863 
L 1178 4863 
L 1178 4134 
L 603 4134 
L 603 4863 
z
" transform="scale(0.015625)"/>
       <path id="DejaVuSans-28" d="M 1984 4856 
Q 1566 4138 1362 3434 
Q 1159 2731 1159 2009 
Q 1159 1288 1364 580 
Q 1569 -128 1984 -844 
L 1484 -844 
Q 1016 -109 783 600 
Q 550 1309 550 2009 
Q 550 2706 781 3412 
Q 1013 4119 1484 4856 
L 1984 4856 
z
" transform="scale(0.015625)"/>
       <path id="DejaVuSans-29" d="M 513 4856 
L 1013 4856 
Q 1481 4119 1714 3412 
Q 1947 2706 1947 2009 
Q 1947 1309 1714 600 
Q 1481 -109 1013 -844 
L 513 -844 
Q 928 -128 1133 580 
Q 1338 1288 1338 2009 
Q 1338 2731 1133 3434 
Q 928 4138 513 4856 
z
" transform="scale(0.015625)"/>
      </defs>
      <use xlink:href="#DejaVuSans-54"/>
      <use xlink:href="#DejaVuSans-79" x="45.458984"/>
      <use xlink:href="#DejaVuSans-70" x="104.638672"/>
      <use xlink:href="#DejaVuSans-65" x="168.115234"/>
      <use xlink:href="#DejaVuSans-2d" x="229.638672"/>
      <use xlink:href="#DejaVuSans-54" x="256.597656"/>
      <use xlink:href="#DejaVuSans-6f" x="300.681641"/>
      <use xlink:href="#DejaVuSans-6b" x="361.863281"/>
      <use xlink:href="#DejaVuSans-65" x="416.148438"/>
      <use xlink:href="#DejaVuSans-6e" x="477.671875"/>
      <use xlink:href="#DejaVuSans-20" x="541.050781"/>
      <use xlink:href="#DejaVuSans-52" x="572.837891"/>
      <use xlink:href="#DejaVuSans-61" x="640.070312"/>
      <use xlink:href="#DejaVuSans-74" x="701.349609"/>
      <use xlink:href="#DejaVuSans-69" x="740.558594"/>
      <use xlink:href="#DejaVuSans-6f" x="768.341797"/>
      <use xlink:href="#DejaVuSans-20" x="829.523438"/>
      <use xlink:href="#DejaVuSans-28" x="861.310547"/>
      <use xlink:href="#DejaVuSans-54" x="900.324219"/>
      <use xlink:href="#DejaVuSans-54" x="959.658203"/>
      <use xlink:href="#DejaVuSans-52" x="1020.742188"/>
      <use xlink:href="#DejaVuSans-29" x="1090.224609"/>
     </g>
    </g>
   </g>
   <g id="PathCollection_1">
    <defs>
     <path id="m38191de99e" d="M 0 2.12132 
C 0.562581 2.12132 1.102195 1.897805 1.5 1.5 
C 1.897805 1.102195 2.12132 0.562581 2.12132 0 
C 2.12132 -0.562581 1.897805 -1.102195 1.5 -1.5 
C 1.102195 -1.897805 0.562581 -2.12132 0 -2.12132 
C -0.562581 -2.12132 -1.102195 -1.897805 -1.5 -1.5 
C -1.897805 -1.102195 -2.12132 -0.562581 -2.12132 0 
C -2.12132 0.562581 -1.897805 1.102195 -1.5 1.5 
C -1.102195 1.897805 -0.562581 2.12132 0 2.12132 
z
" style="stroke: #c06c84; stroke-opacity: 0.35"/>
    </defs>
    <g clip-path="url(#pdade1d660f)">
     <use xlink:href="#m38191de99e" x="75.503011" y="129.009139" style="fill: #c06c84; fill-opacity: 0.35; stroke: #c06c84; stroke-opacity: 0.35"/>
     <use xlink:href="#m38191de99e" x="81.833724" y="317.837557" style="fill: #c06c84; fill-opacity: 0.35; stroke: #c06c84; stroke-opacity: 0.35"/>
     <use xlink:href="#m38191de99e" x="88.164436" y="196.58366" style="fill: #c06c84; fill-opacity: 0.35; stroke: #c06c84; stroke-opacity: 0.35"/>
     <use xlink:href="#m38191de99e" x="94.495149" y="209.741607" style="fill: #c06c84; fill-opacity: 0.35; stroke: #c06c84; stroke-opacity: 0.35"/>
     <use xlink:href="#m38191de99e" x="100.825861" y="85.9" style="fill: #c06c84; fill-opacity: 0.35; stroke: #c06c84; stroke-opacity: 0.35"/>
     <use xlink:href="#m38191de99e" x="107.156574" y="214.159578" style="fill: #c06c84; fill-opacity: 0.35; stroke: #c06c84; stroke-opacity: 0.35"/>
     <use xlink:href="#m38191de99e" x="113.487287" y="205.49789" style="fill: #c06c84; fill-opacity: 0.35; stroke: #c06c84; stroke-opacity: 0.35"/>
     <use xlink:href="#m38191de99e" x="119.817999" y="230.402289" style="fill: #c06c84; fill-opacity: 0.35; stroke: #c06c84; stroke-opacity: 0.35"/>
     <use xlink:href="#m38191de99e" x="126.148712" y="248.37224" style="fill: #c06c84; fill-opacity: 0.35; stroke: #c06c84; stroke-opacity: 0.35"/>
     <use xlink:href="#m38191de99e" x="132.479424" y="281.415462" style="fill: #c06c84; fill-opacity: 0.35; stroke: #c06c84; stroke-opacity: 0.35"/>
     <use xlink:href="#m38191de99e" x="138.810137" y="306.429857" style="fill: #c06c84; fill-opacity: 0.35; stroke: #c06c84; stroke-opacity: 0.35"/>
     <use xlink:href="#m38191de99e" x="145.140849" y="248.364312" style="fill: #c06c84; fill-opacity: 0.35; stroke: #c06c84; stroke-opacity: 0.35"/>
     <use xlink:href="#m38191de99e" x="151.471562" y="324.947902" style="fill: #c06c84; fill-opacity: 0.35; stroke: #c06c84; stroke-opacity: 0.35"/>
     <use xlink:href="#m38191de99e" x="157.802274" y="340.192377" style="fill: #c06c84; fill-opacity: 0.35; stroke: #c06c84; stroke-opacity: 0.35"/>
     <use xlink:href="#m38191de99e" x="164.132987" y="281.319919" style="fill: #c06c84; fill-opacity: 0.35; stroke: #c06c84; stroke-opacity: 0.35"/>
     <use xlink:href="#m38191de99e" x="170.463699" y="308.863007" style="fill: #c06c84; fill-opacity: 0.35; stroke: #c06c84; stroke-opacity: 0.35"/>
     <use xlink:href="#m38191de99e" x="176.794412" y="296.362111" style="fill: #c06c84; fill-opacity: 0.35; stroke: #c06c84; stroke-opacity: 0.35"/>
     <use xlink:href="#m38191de99e" x="183.125124" y="263.15564" style="fill: #c06c84; fill-opacity: 0.35; stroke: #c06c84; stroke-opacity: 0.35"/>
     <use xlink:href="#m38191de99e" x="189.455837" y="370.670752" style="fill: #c06c84; fill-opacity: 0.35; stroke: #c06c84; stroke-opacity: 0.35"/>
     <use xlink:href="#m38191de99e" x="195.786549" y="380.028225" style="fill: #c06c84; fill-opacity: 0.35; stroke: #c06c84; stroke-opacity: 0.35"/>
     <use xlink:href="#m38191de99e" x="202.117262" y="328.196493" style="fill: #c06c84; fill-opacity: 0.35; stroke: #c06c84; stroke-opacity: 0.35"/>
     <use xlink:href="#m38191de99e" x="208.447975" y="216.885305" style="fill: #c06c84; fill-opacity: 0.35; stroke: #c06c84; stroke-opacity: 0.35"/>
     <use xlink:href="#m38191de99e" x="214.778687" y="344.291493" style="fill: #c06c84; fill-opacity: 0.35; stroke: #c06c84; stroke-opacity: 0.35"/>
     <use xlink:href="#m38191de99e" x="221.1094" y="270.942873" style="fill: #c06c84; fill-opacity: 0.35; stroke: #c06c84; stroke-opacity: 0.35"/>
     <use xlink:href="#m38191de99e" x="227.440112" y="265.513063" style="fill: #c06c84; fill-opacity: 0.35; stroke: #c06c84; stroke-opacity: 0.35"/>
     <use xlink:href="#m38191de99e" x="233.770825" y="297.264881" style="fill: #c06c84; fill-opacity: 0.35; stroke: #c06c84; stroke-opacity: 0.35"/>
     <use xlink:href="#m38191de99e" x="240.101537" y="362.6003" style="fill: #c06c84; fill-opacity: 0.35; stroke: #c06c84; stroke-opacity: 0.35"/>
     <use xlink:href="#m38191de99e" x="246.43225" y="386.344259" style="fill: #c06c84; fill-opacity: 0.35; stroke: #c06c84; stroke-opacity: 0.35"/>
     <use xlink:href="#m38191de99e" x="252.762962" y="254.941045" style="fill: #c06c84; fill-opacity: 0.35; stroke: #c06c84; stroke-opacity: 0.35"/>
     <use xlink:href="#m38191de99e" x="259.093675" y="250.431336" style="fill: #c06c84; fill-opacity: 0.35; stroke: #c06c84; stroke-opacity: 0.35"/>
     <use xlink:href="#m38191de99e" x="265.424387" y="374.031867" style="fill: #c06c84; fill-opacity: 0.35; stroke: #c06c84; stroke-opacity: 0.35"/>
     <use xlink:href="#m38191de99e" x="271.7551" y="376.065925" style="fill: #c06c84; fill-opacity: 0.35; stroke: #c06c84; stroke-opacity: 0.35"/>
     <use xlink:href="#m38191de99e" x="278.085812" y="271.964708" style="fill: #c06c84; fill-opacity: 0.35; stroke: #c06c84; stroke-opacity: 0.35"/>
     <use xlink:href="#m38191de99e" x="284.416525" y="290.490473" style="fill: #c06c84; fill-opacity: 0.35; stroke: #c06c84; stroke-opacity: 0.35"/>
     <use xlink:href="#m38191de99e" x="290.747237" y="376.585816" style="fill: #c06c84; fill-opacity: 0.35; stroke: #c06c84; stroke-opacity: 0.35"/>
     <use xlink:href="#m38191de99e" x="297.07795" y="280.166179" style="fill: #c06c84; fill-opacity: 0.35; stroke: #c06c84; stroke-opacity: 0.35"/>
     <use xlink:href="#m38191de99e" x="303.408662" y="324.382344" style="fill: #c06c84; fill-opacity: 0.35; stroke: #c06c84; stroke-opacity: 0.35"/>
     <use xlink:href="#m38191de99e" x="309.739375" y="180.357633" style="fill: #c06c84; fill-opacity: 0.35; stroke: #c06c84; stroke-opacity: 0.35"/>
     <use xlink:href="#m38191de99e" x="316.070088" y="279.732718" style="fill: #c06c84; fill-opacity: 0.35; stroke: #c06c84; stroke-opacity: 0.35"/>
     <use xlink:href="#m38191de99e" x="322.4008" y="253.573107" style="fill: #c06c84; fill-opacity: 0.35; stroke: #c06c84; stroke-opacity: 0.35"/>
     <use xlink:href="#m38191de99e" x="328.731513" y="244.544155" style="fill: #c06c84; fill-opacity: 0.35; stroke: #c06c84; stroke-opacity: 0.35"/>
     <use xlink:href="#m38191de99e" x="335.062225" y="267.072079" style="fill: #c06c84; fill-opacity: 0.35; stroke: #c06c84; stroke-opacity: 0.35"/>
     <use xlink:href="#m38191de99e" x="341.392938" y="338.974998" style="fill: #c06c84; fill-opacity: 0.35; stroke: #c06c84; stroke-opacity: 0.35"/>
     <use xlink:href="#m38191de99e" x="347.72365" y="318.757519" style="fill: #c06c84; fill-opacity: 0.35; stroke: #c06c84; stroke-opacity: 0.35"/>
     <use xlink:href="#m38191de99e" x="354.054363" y="366.964558" style="fill: #c06c84; fill-opacity: 0.35; stroke: #c06c84; stroke-opacity: 0.35"/>
     <use xlink:href="#m38191de99e" x="360.385075" y="308.896876" style="fill: #c06c84; fill-opacity: 0.35; stroke: #c06c84; stroke-opacity: 0.35"/>
     <use xlink:href="#m38191de99e" x="366.715788" y="315.345026" style="fill: #c06c84; fill-opacity: 0.35; stroke: #c06c84; stroke-opacity: 0.35"/>
     <use xlink:href="#m38191de99e" x="373.0465" y="297.390398" style="fill: #c06c84; fill-opacity: 0.35; stroke: #c06c84; stroke-opacity: 0.35"/>
     <use xlink:href="#m38191de99e" x="379.377213" y="323.464609" style="fill: #c06c84; fill-opacity: 0.35; stroke: #c06c84; stroke-opacity: 0.35"/>
     <use xlink:href="#m38191de99e" x="385.707925" y="311.927291" style="fill: #c06c84; fill-opacity: 0.35; stroke: #c06c84; stroke-opacity: 0.35"/>
     <use xlink:href="#m38191de99e" x="392.038638" y="299.457889" style="fill: #c06c84; fill-opacity: 0.35; stroke: #c06c84; stroke-opacity: 0.35"/>
     <use xlink:href="#m38191de99e" x="398.36935" y="316.924089" style="fill: #c06c84; fill-opacity: 0.35; stroke: #c06c84; stroke-opacity: 0.35"/>
     <use xlink:href="#m38191de99e" x="404.700063" y="332.586373" style="fill: #c06c84; fill-opacity: 0.35; stroke: #c06c84; stroke-opacity: 0.35"/>
     <use xlink:href="#m38191de99e" x="411.030775" y="326.984932" style="fill: #c06c84; fill-opacity: 0.35; stroke: #c06c84; stroke-opacity: 0.35"/>
     <use xlink:href="#m38191de99e" x="417.361488" y="312.625587" style="fill: #c06c84; fill-opacity: 0.35; stroke: #c06c84; stroke-opacity: 0.35"/>
     <use xlink:href="#m38191de99e" x="423.692201" y="296.230671" style="fill: #c06c84; fill-opacity: 0.35; stroke: #c06c84; stroke-opacity: 0.35"/>
     <use xlink:href="#m38191de99e" x="430.022913" y="307.086825" style="fill: #c06c84; fill-opacity: 0.35; stroke: #c06c84; stroke-opacity: 0.35"/>
     <use xlink:href="#m38191de99e" x="436.353626" y="279.312175" style="fill: #c06c84; fill-opacity: 0.35; stroke: #c06c84; stroke-opacity: 0.35"/>
     <use xlink:href="#m38191de99e" x="442.684338" y="336.57098" style="fill: #c06c84; fill-opacity: 0.35; stroke: #c06c84; stroke-opacity: 0.35"/>
     <use xlink:href="#m38191de99e" x="449.015051" y="338.837286" style="fill: #c06c84; fill-opacity: 0.35; stroke: #c06c84; stroke-opacity: 0.35"/>
     <use xlink:href="#m38191de99e" x="455.345763" y="289.782504" style="fill: #c06c84; fill-opacity: 0.35; stroke: #c06c84; stroke-opacity: 0.35"/>
     <use xlink:href="#m38191de99e" x="461.676476" y="331.757317" style="fill: #c06c84; fill-opacity: 0.35; stroke: #c06c84; stroke-opacity: 0.35"/>
     <use xlink:href="#m38191de99e" x="468.007188" y="255.802498" style="fill: #c06c84; fill-opacity: 0.35; stroke: #c06c84; stroke-opacity: 0.35"/>
     <use xlink:href="#m38191de99e" x="474.337901" y="387.9" style="fill: #c06c84; fill-opacity: 0.35; stroke: #c06c84; stroke-opacity: 0.35"/>
     <use xlink:href="#m38191de99e" x="480.668613" y="300.437063" style="fill: #c06c84; fill-opacity: 0.35; stroke: #c06c84; stroke-opacity: 0.35"/>
     <use xlink:href="#m38191de99e" x="486.999326" y="329.736882" style="fill: #c06c84; fill-opacity: 0.35; stroke: #c06c84; stroke-opacity: 0.35"/>
     <use xlink:href="#m38191de99e" x="493.330038" y="337.770294" style="fill: #c06c84; fill-opacity: 0.35; stroke: #c06c84; stroke-opacity: 0.35"/>
     <use xlink:href="#m38191de99e" x="499.660751" y="306.059437" style="fill: #c06c84; fill-opacity: 0.35; stroke: #c06c84; stroke-opacity: 0.35"/>
     <use xlink:href="#m38191de99e" x="505.991463" y="335.596281" style="fill: #c06c84; fill-opacity: 0.35; stroke: #c06c84; stroke-opacity: 0.35"/>
     <use xlink:href="#m38191de99e" x="512.322176" y="358.261933" style="fill: #c06c84; fill-opacity: 0.35; stroke: #c06c84; stroke-opacity: 0.35"/>
     <use xlink:href="#m38191de99e" x="518.652889" y="372.577914" style="fill: #c06c84; fill-opacity: 0.35; stroke: #c06c84; stroke-opacity: 0.35"/>
     <use xlink:href="#m38191de99e" x="524.983601" y="344.815234" style="fill: #c06c84; fill-opacity: 0.35; stroke: #c06c84; stroke-opacity: 0.35"/>
     <use xlink:href="#m38191de99e" x="531.314314" y="357.223278" style="fill: #c06c84; fill-opacity: 0.35; stroke: #c06c84; stroke-opacity: 0.35"/>
     <use xlink:href="#m38191de99e" x="537.645026" y="383.819188" style="fill: #c06c84; fill-opacity: 0.35; stroke: #c06c84; stroke-opacity: 0.35"/>
     <use xlink:href="#m38191de99e" x="543.975739" y="348.28264" style="fill: #c06c84; fill-opacity: 0.35; stroke: #c06c84; stroke-opacity: 0.35"/>
    </g>
   </g>
   <g id="patch_3">
    <path d="M 52.079375 403 
L 52.079375 70.8 
" style="fill: none; stroke: #000000; stroke-width: 0.8; stroke-linejoin: miter; stroke-linecap: square"/>
   </g>
   <g id="patch_4">
    <path d="M 567.399375 403 
L 567.399375 70.8 
" style="fill: none; stroke: #000000; stroke-width: 0.8; stroke-linejoin: miter; stroke-linecap: square"/>
   </g>
   <g id="patch_5">
    <path d="M 52.079375 403 
L 567.399375 403 
" style="fill: none; stroke: #000000; stroke-width: 0.8; stroke-linejoin: miter; stroke-linecap: square"/>
   </g>
   <g id="patch_6">
    <path d="M 52.079375 70.8 
L 567.399375 70.8 
" style="fill: none; stroke: #000000; stroke-width: 0.8; stroke-linejoin: miter; stroke-linecap: square"/>
   </g>
   <g id="line2d_19">
    <path d="M 75.503011 214.476785 
L 81.833724 213.292991 
L 88.164436 187.814393 
L 94.495149 204.84448 
L 100.825861 182.376547 
L 107.156574 189.140273 
L 113.487287 196.866399 
L 119.817999 235.969492 
L 126.148712 254.423547 
L 132.479424 262.996832 
L 138.810137 281.905954 
L 145.140849 300.269982 
L 151.471562 300.250873 
L 157.802274 300.737503 
L 164.132987 310.337063 
L 170.463699 297.978611 
L 176.794412 304.074286 
L 183.125124 323.815947 
L 189.455837 327.682644 
L 195.786549 311.787283 
L 202.117262 328.014454 
L 208.447975 308.068878 
L 214.778687 285.165845 
L 221.1094 278.979523 
L 227.440112 308.122522 
L 233.770825 316.533075 
L 240.101537 313.33271 
L 246.43225 310.316365 
L 252.762962 325.669762 
L 259.093675 328.362887 
L 265.424387 305.486976 
L 271.7551 312.596862 
L 278.085812 337.827758 
L 284.416525 319.05462 
L 290.747237 308.717904 
L 297.07795 290.396489 
L 303.408662 288.244938 
L 309.739375 263.642396 
L 316.070088 256.517991 
L 322.4008 245.055938 
L 328.731513 276.779411 
L 335.062225 284.584372 
L 341.392938 307.262662 
L 347.72365 320.133206 
L 354.054363 329.787795 
L 360.385075 321.470875 
L 366.715788 322.412294 
L 373.0465 311.40484 
L 379.377213 309.517043 
L 385.707925 309.832855 
L 392.038638 316.87205 
L 398.36935 317.576115 
L 404.700063 317.715774 
L 411.030775 317.070331 
L 417.361488 315.102878 
L 423.692201 304.448038 
L 430.022913 306.365248 
L 436.353626 311.607587 
L 442.684338 310.317954 
L 449.015051 315.252052 
L 455.345763 310.550117 
L 461.676476 320.815921 
L 468.007188 313.135877 
L 474.337901 321.126752 
L 480.668613 322.329347 
L 486.999326 332.380735 
L 493.330038 321.919991 
L 499.660751 333.484965 
L 505.991463 342.053172 
L 512.322176 343.46216 
L 518.652889 353.694928 
L 524.983601 363.339509 
L 531.314314 361.343651 
L 537.645026 358.535085 
L 543.975739 363.108369 
" clip-path="url(#pdade1d660f)" style="fill: none; stroke: #c06c84; stroke-width: 2.5; stroke-linecap: square"/>
   </g>
   <g id="text_16">
    <!-- Lexical Diversity -->
    <g transform="translate(244.797969 64.8) scale(0.14 -0.14)">
     <defs>
      <path id="DejaVuSerif-Bold-4c" d="M 300 0 
L 300 378 
L 897 378 
L 897 4288 
L 300 4288 
L 300 4666 
L 2700 4666 
L 2700 4288 
L 2100 4288 
L 2100 428 
L 3938 428 
L 3938 1166 
L 4359 1166 
L 4359 0 
L 300 0 
z
" transform="scale(0.015625)"/>
      <path id="DejaVuSerif-Bold-65" d="M 2566 1875 
Q 2566 2531 2444 2795 
Q 2322 3059 2028 3059 
Q 1744 3059 1620 2800 
Q 1497 2541 1497 1931 
L 1497 1875 
L 2566 1875 
z
M 3781 1503 
L 1497 1503 
L 1497 1478 
Q 1497 834 1690 548 
Q 1884 263 2316 263 
Q 2675 263 2897 453 
Q 3119 644 3181 1006 
L 3700 1006 
Q 3566 441 3166 175 
Q 2766 -91 2047 -91 
Q 1184 -91 723 364 
Q 263 819 263 1663 
Q 263 2488 734 2950 
Q 1206 3413 2047 3413 
Q 2872 3413 3312 2927 
Q 3753 2441 3781 1503 
z
" transform="scale(0.015625)"/>
      <path id="DejaVuSerif-Bold-78" d="M 2247 2119 
L 2834 2944 
L 2425 2944 
L 2425 3322 
L 3719 3322 
L 3719 2944 
L 3278 2944 
L 2431 1759 
L 3419 378 
L 3859 378 
L 3859 0 
L 1747 0 
L 1747 378 
L 2175 378 
L 1550 1253 
L 922 378 
L 1369 378 
L 1369 0 
L 0 0 
L 0 378 
L 475 378 
L 1356 1619 
L 403 2944 
L 31 2944 
L 31 3322 
L 2059 3322 
L 2059 2944 
L 1656 2944 
L 2247 2119 
z
" transform="scale(0.015625)"/>
      <path id="DejaVuSerif-Bold-69" d="M 588 4263 
Q 588 4516 763 4689 
Q 938 4863 1191 4863 
Q 1438 4863 1611 4689 
Q 1784 4516 1784 4263 
Q 1784 4016 1611 3842 
Q 1438 3669 1191 3669 
Q 938 3669 763 3841 
Q 588 4013 588 4263 
z
M 1797 378 
L 2272 378 
L 2272 0 
L 219 0 
L 219 378 
L 691 378 
L 691 2944 
L 219 2944 
L 219 3322 
L 1797 3322 
L 1797 378 
z
" transform="scale(0.015625)"/>
      <path id="DejaVuSerif-Bold-63" d="M 3609 1038 
Q 3491 469 3123 189 
Q 2756 -91 2125 -91 
Q 1238 -91 750 368 
Q 263 828 263 1663 
Q 263 2488 744 2950 
Q 1225 3413 2081 3413 
Q 2428 3413 2781 3347 
Q 3134 3281 3500 3150 
L 3500 2228 
L 3150 2228 
Q 3100 2650 2903 2854 
Q 2706 3059 2350 3059 
Q 1888 3059 1692 2746 
Q 1497 2434 1497 1663 
Q 1497 909 1687 586 
Q 1878 263 2309 263 
Q 2644 263 2845 463 
Q 3047 663 3091 1038 
L 3609 1038 
z
" transform="scale(0.015625)"/>
      <path id="DejaVuSerif-Bold-61" d="M 3525 2041 
L 3525 378 
L 4000 378 
L 4000 0 
L 2419 0 
L 2419 422 
Q 2200 159 1931 34 
Q 1663 -91 1319 -91 
Q 809 -91 536 182 
Q 263 456 263 966 
Q 263 1525 655 1803 
Q 1047 2081 1838 2081 
L 2419 2081 
L 2419 2278 
Q 2419 2681 2228 2873 
Q 2038 3066 1638 3066 
Q 1306 3066 1126 2930 
Q 947 2794 872 2484 
L 519 2484 
L 519 3200 
Q 816 3306 1134 3359 
Q 1453 3413 1806 3413 
Q 2697 3413 3111 3081 
Q 3525 2750 3525 2041 
z
M 2419 1044 
L 2419 1709 
L 2003 1709 
Q 1694 1709 1528 1540 
Q 1363 1372 1363 1056 
Q 1363 741 1483 584 
Q 1603 428 1850 428 
Q 2106 428 2262 597 
Q 2419 766 2419 1044 
z
" transform="scale(0.015625)"/>
      <path id="DejaVuSerif-Bold-6c" d="M 1797 378 
L 2272 378 
L 2272 0 
L 219 0 
L 219 378 
L 691 378 
L 691 4488 
L 219 4488 
L 219 4863 
L 1797 4863 
L 1797 378 
z
" transform="scale(0.015625)"/>
      <path id="DejaVuSerif-Bold-20" transform="scale(0.015625)"/>
      <path id="DejaVuSerif-Bold-44" d="M 2100 378 
L 2534 378 
Q 3266 378 3605 847 
Q 3944 1316 3944 2338 
Q 3944 3353 3606 3820 
Q 3269 4288 2534 4288 
L 2100 4288 
L 2100 378 
z
M 300 0 
L 300 378 
L 897 378 
L 897 4288 
L 300 4288 
L 300 4666 
L 2694 4666 
Q 3950 4666 4615 4066 
Q 5281 3466 5281 2338 
Q 5281 1203 4614 601 
Q 3947 0 2694 0 
L 300 0 
z
" transform="scale(0.015625)"/>
      <path id="DejaVuSerif-Bold-76" d="M 1428 0 
L 250 2944 
L -116 2944 
L -116 3322 
L 1791 3322 
L 1791 2944 
L 1388 2944 
L 2228 844 
L 3066 2944 
L 2631 2944 
L 2631 3322 
L 3878 3322 
L 3878 2944 
L 3494 2944 
L 2316 0 
L 1428 0 
z
" transform="scale(0.015625)"/>
      <path id="DejaVuSerif-Bold-72" d="M 3438 3359 
L 3438 2369 
L 3084 2369 
Q 3066 2634 2941 2764 
Q 2816 2894 2578 2894 
Q 2216 2894 2006 2575 
Q 1797 2256 1797 1691 
L 1797 378 
L 2400 378 
L 2400 0 
L 219 0 
L 219 378 
L 691 378 
L 691 2944 
L 184 2944 
L 184 3322 
L 1797 3322 
L 1797 2731 
Q 1959 3078 2226 3245 
Q 2494 3413 2881 3413 
Q 2978 3413 3117 3398 
Q 3256 3384 3438 3359 
z
" transform="scale(0.015625)"/>
      <path id="DejaVuSerif-Bold-73" d="M 300 97 
L 300 1025 
L 653 1025 
Q 697 653 931 458 
Q 1166 263 1569 263 
Q 1906 263 2086 380 
Q 2266 497 2266 716 
Q 2266 916 2152 1025 
Q 2038 1134 1709 1216 
L 1253 1331 
Q 738 1459 506 1698 
Q 275 1938 275 2344 
Q 275 2884 650 3148 
Q 1025 3413 1806 3413 
Q 2100 3413 2433 3364 
Q 2766 3316 3169 3213 
L 3169 2375 
L 2816 2375 
Q 2788 2716 2573 2887 
Q 2359 3059 1959 3059 
Q 1622 3059 1448 2951 
Q 1275 2844 1275 2638 
Q 1275 2469 1375 2372 
Q 1475 2275 1734 2209 
L 2188 2094 
Q 2841 1928 3091 1684 
Q 3341 1441 3341 1006 
Q 3341 444 2939 176 
Q 2538 -91 1691 -91 
Q 1381 -91 1034 -44 
Q 688 3 300 97 
z
" transform="scale(0.015625)"/>
      <path id="DejaVuSerif-Bold-74" d="M 634 2944 
L 153 2944 
L 153 3322 
L 634 3322 
L 634 4353 
L 1741 4353 
L 1741 3322 
L 2663 3322 
L 2663 2944 
L 1741 2944 
L 1741 909 
Q 1741 475 1809 369 
Q 1878 263 2059 263 
Q 2259 263 2356 397 
Q 2453 531 2459 813 
L 2925 813 
Q 2897 313 2651 111 
Q 2406 -91 1806 -91 
Q 1122 -91 878 123 
Q 634 338 634 909 
L 634 2944 
z
" transform="scale(0.015625)"/>
      <path id="DejaVuSerif-Bold-79" d="M 1997 -750 
Q 1847 -1116 1634 -1269 
Q 1422 -1422 1063 -1422 
Q 909 -1422 721 -1387 
Q 534 -1353 313 -1288 
L 313 -594 
L 666 -597 
Q 675 -838 779 -953 
Q 884 -1069 1094 -1069 
Q 1297 -1069 1422 -958 
Q 1547 -847 1672 -538 
L 1722 -422 
L 275 2944 
L -84 2944 
L -84 3322 
L 1831 3322 
L 1831 2944 
L 1434 2944 
L 2278 978 
L 3066 2944 
L 2625 2944 
L 2625 3322 
L 3872 3322 
L 3872 2944 
L 3469 2944 
L 1997 -750 
z
" transform="scale(0.015625)"/>
     </defs>
     <use xlink:href="#DejaVuSerif-Bold-4c"/>
     <use xlink:href="#DejaVuSerif-Bold-65" x="70.3125"/>
     <use xlink:href="#DejaVuSerif-Bold-78" x="133.935547"/>
     <use xlink:href="#DejaVuSerif-Bold-69" x="193.554688"/>
     <use xlink:href="#DejaVuSerif-Bold-63" x="231.542969"/>
     <use xlink:href="#DejaVuSerif-Bold-61" x="292.431641"/>
     <use xlink:href="#DejaVuSerif-Bold-6c" x="357.226562"/>
     <use xlink:href="#DejaVuSerif-Bold-20" x="395.214844"/>
     <use xlink:href="#DejaVuSerif-Bold-44" x="430.029297"/>
     <use xlink:href="#DejaVuSerif-Bold-69" x="516.748047"/>
     <use xlink:href="#DejaVuSerif-Bold-76" x="554.736328"/>
     <use xlink:href="#DejaVuSerif-Bold-65" x="612.841797"/>
     <use xlink:href="#DejaVuSerif-Bold-72" x="676.464844"/>
     <use xlink:href="#DejaVuSerif-Bold-73" x="729.150391"/>
     <use xlink:href="#DejaVuSerif-Bold-69" x="785.449219"/>
     <use xlink:href="#DejaVuSerif-Bold-74" x="823.4375"/>
     <use xlink:href="#DejaVuSerif-Bold-79" x="869.628906"/>
    </g>
   </g>
  </g>
  <g id="axes_2">
   <g id="patch_7">
    <path d="M 621.149375 403 
L 1136.469375 403 
L 1136.469375 70.8 
L 621.149375 70.8 
z
" style="fill: #fafafa"/>
   </g>
   <g id="matplotlib.axis_3">
    <g id="xtick_9">
     <g id="line2d_20">
      <g>
       <use xlink:href="#mbda34c5aa8" x="638.242299" y="403" style="stroke: #000000; stroke-width: 0.8"/>
      </g>
     </g>
     <g id="text_17">
      <!-- 1950 -->
      <g transform="translate(625.517299 417.598437) scale(0.1 -0.1)">
       <use xlink:href="#DejaVuSans-31"/>
       <use xlink:href="#DejaVuSans-39" x="63.623047"/>
       <use xlink:href="#DejaVuSans-35" x="127.246094"/>
       <use xlink:href="#DejaVuSans-30" x="190.869141"/>
      </g>
     </g>
    </g>
    <g id="xtick_10">
     <g id="line2d_21">
      <g>
       <use xlink:href="#mbda34c5aa8" x="701.549424" y="403" style="stroke: #000000; stroke-width: 0.8"/>
      </g>
     </g>
     <g id="text_18">
      <!-- 1960 -->
      <g transform="translate(688.824424 417.598437) scale(0.1 -0.1)">
       <use xlink:href="#DejaVuSans-31"/>
       <use xlink:href="#DejaVuSans-39" x="63.623047"/>
       <use xlink:href="#DejaVuSans-36" x="127.246094"/>
       <use xlink:href="#DejaVuSans-30" x="190.869141"/>
      </g>
     </g>
    </g>
    <g id="xtick_11">
     <g id="line2d_22">
      <g>
       <use xlink:href="#mbda34c5aa8" x="764.856549" y="403" style="stroke: #000000; stroke-width: 0.8"/>
      </g>
     </g>
     <g id="text_19">
      <!-- 1970 -->
      <g transform="translate(752.131549 417.598437) scale(0.1 -0.1)">
       <use xlink:href="#DejaVuSans-31"/>
       <use xlink:href="#DejaVuSans-39" x="63.623047"/>
       <use xlink:href="#DejaVuSans-37" x="127.246094"/>
       <use xlink:href="#DejaVuSans-30" x="190.869141"/>
      </g>
     </g>
    </g>
    <g id="xtick_12">
     <g id="line2d_23">
      <g>
       <use xlink:href="#mbda34c5aa8" x="828.163675" y="403" style="stroke: #000000; stroke-width: 0.8"/>
      </g>
     </g>
     <g id="text_20">
      <!-- 1980 -->
      <g transform="translate(815.438675 417.598437) scale(0.1 -0.1)">
       <use xlink:href="#DejaVuSans-31"/>
       <use xlink:href="#DejaVuSans-39" x="63.623047"/>
       <use xlink:href="#DejaVuSans-38" x="127.246094"/>
       <use xlink:href="#DejaVuSans-30" x="190.869141"/>
      </g>
     </g>
    </g>
    <g id="xtick_13">
     <g id="line2d_24">
      <g>
       <use xlink:href="#mbda34c5aa8" x="891.4708" y="403" style="stroke: #000000; stroke-width: 0.8"/>
      </g>
     </g>
     <g id="text_21">
      <!-- 1990 -->
      <g transform="translate(878.7458 417.598437) scale(0.1 -0.1)">
       <use xlink:href="#DejaVuSans-31"/>
       <use xlink:href="#DejaVuSans-39" x="63.623047"/>
       <use xlink:href="#DejaVuSans-39" x="127.246094"/>
       <use xlink:href="#DejaVuSans-30" x="190.869141"/>
      </g>
     </g>
    </g>
    <g id="xtick_14">
     <g id="line2d_25">
      <g>
       <use xlink:href="#mbda34c5aa8" x="954.777925" y="403" style="stroke: #000000; stroke-width: 0.8"/>
      </g>
     </g>
     <g id="text_22">
      <!-- 2000 -->
      <g transform="translate(942.052925 417.598437) scale(0.1 -0.1)">
       <use xlink:href="#DejaVuSans-32"/>
       <use xlink:href="#DejaVuSans-30" x="63.623047"/>
       <use xlink:href="#DejaVuSans-30" x="127.246094"/>
       <use xlink:href="#DejaVuSans-30" x="190.869141"/>
      </g>
     </g>
    </g>
    <g id="xtick_15">
     <g id="line2d_26">
      <g>
       <use xlink:href="#mbda34c5aa8" x="1018.085051" y="403" style="stroke: #000000; stroke-width: 0.8"/>
      </g>
     </g>
     <g id="text_23">
      <!-- 2010 -->
      <g transform="translate(1005.360051 417.598437) scale(0.1 -0.1)">
       <use xlink:href="#DejaVuSans-32"/>
       <use xlink:href="#DejaVuSans-30" x="63.623047"/>
       <use xlink:href="#DejaVuSans-31" x="127.246094"/>
       <use xlink:href="#DejaVuSans-30" x="190.869141"/>
      </g>
     </g>
    </g>
    <g id="xtick_16">
     <g id="line2d_27">
      <g>
       <use xlink:href="#mbda34c5aa8" x="1081.392176" y="403" style="stroke: #000000; stroke-width: 0.8"/>
      </g>
     </g>
     <g id="text_24">
      <!-- 2020 -->
      <g transform="translate(1068.667176 417.598437) scale(0.1 -0.1)">
       <use xlink:href="#DejaVuSans-32"/>
       <use xlink:href="#DejaVuSans-30" x="63.623047"/>
       <use xlink:href="#DejaVuSans-32" x="127.246094"/>
       <use xlink:href="#DejaVuSans-30" x="190.869141"/>
      </g>
     </g>
    </g>
    <g id="text_25">
     <!-- Year -->
     <g transform="translate(866.104375 432.79625) scale(0.12 -0.12)">
      <use xlink:href="#DejaVuSans-59"/>
      <use xlink:href="#DejaVuSans-65" x="47.833984"/>
      <use xlink:href="#DejaVuSans-61" x="109.357422"/>
      <use xlink:href="#DejaVuSans-72" x="170.636719"/>
     </g>
    </g>
   </g>
   <g id="matplotlib.axis_4">
    <g id="ytick_6">
     <g id="line2d_28">
      <path d="M 621.149375 400.229886 
L 1136.469375 400.229886 
" clip-path="url(#p32d019dfcd)" style="fill: none; stroke: #b0b0b0; stroke-opacity: 0.3; stroke-width: 0.8; stroke-linecap: square"/>
     </g>
     <g id="line2d_29">
      <g>
       <use xlink:href="#m6fe967002d" x="621.149375" y="400.229886" style="stroke: #000000; stroke-width: 0.8"/>
      </g>
     </g>
     <g id="text_26">
      <!-- 100 -->
      <g transform="translate(595.061875 404.029104) scale(0.1 -0.1)">
       <use xlink:href="#DejaVuSans-31"/>
       <use xlink:href="#DejaVuSans-30" x="63.623047"/>
       <use xlink:href="#DejaVuSans-30" x="127.246094"/>
      </g>
     </g>
    </g>
    <g id="ytick_7">
     <g id="line2d_30">
      <path d="M 621.149375 350.910343 
L 1136.469375 350.910343 
" clip-path="url(#p32d019dfcd)" style="fill: none; stroke: #b0b0b0; stroke-opacity: 0.3; stroke-width: 0.8; stroke-linecap: square"/>
     </g>
     <g id="line2d_31">
      <g>
       <use xlink:href="#m6fe967002d" x="621.149375" y="350.910343" style="stroke: #000000; stroke-width: 0.8"/>
      </g>
     </g>
     <g id="text_27">
      <!-- 150 -->
      <g transform="translate(595.061875 354.709562) scale(0.1 -0.1)">
       <use xlink:href="#DejaVuSans-31"/>
       <use xlink:href="#DejaVuSans-35" x="63.623047"/>
       <use xlink:href="#DejaVuSans-30" x="127.246094"/>
      </g>
     </g>
    </g>
    <g id="ytick_8">
     <g id="line2d_32">
      <path d="M 621.149375 301.5908 
L 1136.469375 301.5908 
" clip-path="url(#p32d019dfcd)" style="fill: none; stroke: #b0b0b0; stroke-opacity: 0.3; stroke-width: 0.8; stroke-linecap: square"/>
     </g>
     <g id="line2d_33">
      <g>
       <use xlink:href="#m6fe967002d" x="621.149375" y="301.5908" style="stroke: #000000; stroke-width: 0.8"/>
      </g>
     </g>
     <g id="text_28">
      <!-- 200 -->
      <g transform="translate(595.061875 305.390019) scale(0.1 -0.1)">
       <use xlink:href="#DejaVuSans-32"/>
       <use xlink:href="#DejaVuSans-30" x="63.623047"/>
       <use xlink:href="#DejaVuSans-30" x="127.246094"/>
      </g>
     </g>
    </g>
    <g id="ytick_9">
     <g id="line2d_34">
      <path d="M 621.149375 252.271257 
L 1136.469375 252.271257 
" clip-path="url(#p32d019dfcd)" style="fill: none; stroke: #b0b0b0; stroke-opacity: 0.3; stroke-width: 0.8; stroke-linecap: square"/>
     </g>
     <g id="line2d_35">
      <g>
       <use xlink:href="#m6fe967002d" x="621.149375" y="252.271257" style="stroke: #000000; stroke-width: 0.8"/>
      </g>
     </g>
     <g id="text_29">
      <!-- 250 -->
      <g transform="translate(595.061875 256.070476) scale(0.1 -0.1)">
       <use xlink:href="#DejaVuSans-32"/>
       <use xlink:href="#DejaVuSans-35" x="63.623047"/>
       <use xlink:href="#DejaVuSans-30" x="127.246094"/>
      </g>
     </g>
    </g>
    <g id="ytick_10">
     <g id="line2d_36">
      <path d="M 621.149375 202.951715 
L 1136.469375 202.951715 
" clip-path="url(#p32d019dfcd)" style="fill: none; stroke: #b0b0b0; stroke-opacity: 0.3; stroke-width: 0.8; stroke-linecap: square"/>
     </g>
     <g id="line2d_37">
      <g>
       <use xlink:href="#m6fe967002d" x="621.149375" y="202.951715" style="stroke: #000000; stroke-width: 0.8"/>
      </g>
     </g>
     <g id="text_30">
      <!-- 300 -->
      <g transform="translate(595.061875 206.750934) scale(0.1 -0.1)">
       <use xlink:href="#DejaVuSans-33"/>
       <use xlink:href="#DejaVuSans-30" x="63.623047"/>
       <use xlink:href="#DejaVuSans-30" x="127.246094"/>
      </g>
     </g>
    </g>
    <g id="ytick_11">
     <g id="line2d_38">
      <path d="M 621.149375 153.632172 
L 1136.469375 153.632172 
" clip-path="url(#p32d019dfcd)" style="fill: none; stroke: #b0b0b0; stroke-opacity: 0.3; stroke-width: 0.8; stroke-linecap: square"/>
     </g>
     <g id="line2d_39">
      <g>
       <use xlink:href="#m6fe967002d" x="621.149375" y="153.632172" style="stroke: #000000; stroke-width: 0.8"/>
      </g>
     </g>
     <g id="text_31">
      <!-- 350 -->
      <g transform="translate(595.061875 157.431391) scale(0.1 -0.1)">
       <use xlink:href="#DejaVuSans-33"/>
       <use xlink:href="#DejaVuSans-35" x="63.623047"/>
       <use xlink:href="#DejaVuSans-30" x="127.246094"/>
      </g>
     </g>
    </g>
    <g id="ytick_12">
     <g id="line2d_40">
      <path d="M 621.149375 104.312629 
L 1136.469375 104.312629 
" clip-path="url(#p32d019dfcd)" style="fill: none; stroke: #b0b0b0; stroke-opacity: 0.3; stroke-width: 0.8; stroke-linecap: square"/>
     </g>
     <g id="line2d_41">
      <g>
       <use xlink:href="#m6fe967002d" x="621.149375" y="104.312629" style="stroke: #000000; stroke-width: 0.8"/>
      </g>
     </g>
     <g id="text_32">
      <!-- 400 -->
      <g transform="translate(595.061875 108.111848) scale(0.1 -0.1)">
       <use xlink:href="#DejaVuSans-34"/>
       <use xlink:href="#DejaVuSans-30" x="63.623047"/>
       <use xlink:href="#DejaVuSans-30" x="127.246094"/>
      </g>
     </g>
    </g>
    <g id="text_33">
     <!-- Avg. Tokens per Song -->
     <g transform="translate(588.56625 300.891875) rotate(-90) scale(0.12 -0.12)">
      <defs>
       <path id="DejaVuSans-41" d="M 2188 4044 
L 1331 1722 
L 3047 1722 
L 2188 4044 
z
M 1831 4666 
L 2547 4666 
L 4325 0 
L 3669 0 
L 3244 1197 
L 1141 1197 
L 716 0 
L 50 0 
L 1831 4666 
z
" transform="scale(0.015625)"/>
       <path id="DejaVuSans-76" d="M 191 3500 
L 800 3500 
L 1894 563 
L 2988 3500 
L 3597 3500 
L 2284 0 
L 1503 0 
L 191 3500 
z
" transform="scale(0.015625)"/>
       <path id="DejaVuSans-67" d="M 2906 1791 
Q 2906 2416 2648 2759 
Q 2391 3103 1925 3103 
Q 1463 3103 1205 2759 
Q 947 2416 947 1791 
Q 947 1169 1205 825 
Q 1463 481 1925 481 
Q 2391 481 2648 825 
Q 2906 1169 2906 1791 
z
M 3481 434 
Q 3481 -459 3084 -895 
Q 2688 -1331 1869 -1331 
Q 1566 -1331 1297 -1286 
Q 1028 -1241 775 -1147 
L 775 -588 
Q 1028 -725 1275 -790 
Q 1522 -856 1778 -856 
Q 2344 -856 2625 -561 
Q 2906 -266 2906 331 
L 2906 616 
Q 2728 306 2450 153 
Q 2172 0 1784 0 
Q 1141 0 747 490 
Q 353 981 353 1791 
Q 353 2603 747 3093 
Q 1141 3584 1784 3584 
Q 2172 3584 2450 3431 
Q 2728 3278 2906 2969 
L 2906 3500 
L 3481 3500 
L 3481 434 
z
" transform="scale(0.015625)"/>
       <path id="DejaVuSans-73" d="M 2834 3397 
L 2834 2853 
Q 2591 2978 2328 3040 
Q 2066 3103 1784 3103 
Q 1356 3103 1142 2972 
Q 928 2841 928 2578 
Q 928 2378 1081 2264 
Q 1234 2150 1697 2047 
L 1894 2003 
Q 2506 1872 2764 1633 
Q 3022 1394 3022 966 
Q 3022 478 2636 193 
Q 2250 -91 1575 -91 
Q 1294 -91 989 -36 
Q 684 19 347 128 
L 347 722 
Q 666 556 975 473 
Q 1284 391 1588 391 
Q 1994 391 2212 530 
Q 2431 669 2431 922 
Q 2431 1156 2273 1281 
Q 2116 1406 1581 1522 
L 1381 1569 
Q 847 1681 609 1914 
Q 372 2147 372 2553 
Q 372 3047 722 3315 
Q 1072 3584 1716 3584 
Q 2034 3584 2315 3537 
Q 2597 3491 2834 3397 
z
" transform="scale(0.015625)"/>
       <path id="DejaVuSans-53" d="M 3425 4513 
L 3425 3897 
Q 3066 4069 2747 4153 
Q 2428 4238 2131 4238 
Q 1616 4238 1336 4038 
Q 1056 3838 1056 3469 
Q 1056 3159 1242 3001 
Q 1428 2844 1947 2747 
L 2328 2669 
Q 3034 2534 3370 2195 
Q 3706 1856 3706 1288 
Q 3706 609 3251 259 
Q 2797 -91 1919 -91 
Q 1588 -91 1214 -16 
Q 841 59 441 206 
L 441 856 
Q 825 641 1194 531 
Q 1563 422 1919 422 
Q 2459 422 2753 634 
Q 3047 847 3047 1241 
Q 3047 1584 2836 1778 
Q 2625 1972 2144 2069 
L 1759 2144 
Q 1053 2284 737 2584 
Q 422 2884 422 3419 
Q 422 4038 858 4394 
Q 1294 4750 2059 4750 
Q 2388 4750 2728 4690 
Q 3069 4631 3425 4513 
z
" transform="scale(0.015625)"/>
      </defs>
      <use xlink:href="#DejaVuSans-41"/>
      <use xlink:href="#DejaVuSans-76" x="62.533203"/>
      <use xlink:href="#DejaVuSans-67" x="121.712891"/>
      <use xlink:href="#DejaVuSans-2e" x="185.189453"/>
      <use xlink:href="#DejaVuSans-20" x="216.976562"/>
      <use xlink:href="#DejaVuSans-54" x="248.763672"/>
      <use xlink:href="#DejaVuSans-6f" x="292.847656"/>
      <use xlink:href="#DejaVuSans-6b" x="354.029297"/>
      <use xlink:href="#DejaVuSans-65" x="408.314453"/>
      <use xlink:href="#DejaVuSans-6e" x="469.837891"/>
      <use xlink:href="#DejaVuSans-73" x="533.216797"/>
      <use xlink:href="#DejaVuSans-20" x="585.316406"/>
      <use xlink:href="#DejaVuSans-70" x="617.103516"/>
      <use xlink:href="#DejaVuSans-65" x="680.580078"/>
      <use xlink:href="#DejaVuSans-72" x="742.103516"/>
      <use xlink:href="#DejaVuSans-20" x="783.216797"/>
      <use xlink:href="#DejaVuSans-53" x="815.003906"/>
      <use xlink:href="#DejaVuSans-6f" x="878.480469"/>
      <use xlink:href="#DejaVuSans-6e" x="939.662109"/>
      <use xlink:href="#DejaVuSans-67" x="1003.041016"/>
     </g>
    </g>
   </g>
   <g id="PathCollection_2">
    <defs>
     <path id="m685e8fc22a" d="M 0 2.12132 
C 0.562581 2.12132 1.102195 1.897805 1.5 1.5 
C 1.897805 1.102195 2.12132 0.562581 2.12132 0 
C 2.12132 -0.562581 1.897805 -1.102195 1.5 -1.5 
C 1.102195 -1.897805 0.562581 -2.12132 0 -2.12132 
C -0.562581 -2.12132 -1.102195 -1.897805 -1.5 -1.5 
C -1.897805 -1.102195 -2.12132 -0.562581 -2.12132 0 
C -2.12132 0.562581 -1.897805 1.102195 -1.5 1.5 
C -1.102195 1.897805 -0.562581 2.12132 0 2.12132 
z
" style="stroke: #355c7d; stroke-opacity: 0.35"/>
    </defs>
    <g clip-path="url(#p32d019dfcd)">
     <use xlink:href="#m685e8fc22a" x="644.573011" y="227.118291" style="fill: #355c7d; fill-opacity: 0.35; stroke: #355c7d; stroke-opacity: 0.35"/>
     <use xlink:href="#m685e8fc22a" x="650.903724" y="169.661023" style="fill: #355c7d; fill-opacity: 0.35; stroke: #355c7d; stroke-opacity: 0.35"/>
     <use xlink:href="#m685e8fc22a" x="657.234436" y="358.061677" style="fill: #355c7d; fill-opacity: 0.35; stroke: #355c7d; stroke-opacity: 0.35"/>
     <use xlink:href="#m685e8fc22a" x="663.565149" y="297.053402" style="fill: #355c7d; fill-opacity: 0.35; stroke: #355c7d; stroke-opacity: 0.35"/>
     <use xlink:href="#m685e8fc22a" x="669.895861" y="232.937997" style="fill: #355c7d; fill-opacity: 0.35; stroke: #355c7d; stroke-opacity: 0.35"/>
     <use xlink:href="#m685e8fc22a" x="676.226574" y="262.557905" style="fill: #355c7d; fill-opacity: 0.35; stroke: #355c7d; stroke-opacity: 0.35"/>
     <use xlink:href="#m685e8fc22a" x="682.557287" y="299.618019" style="fill: #355c7d; fill-opacity: 0.35; stroke: #355c7d; stroke-opacity: 0.35"/>
     <use xlink:href="#m685e8fc22a" x="688.887999" y="320.496625" style="fill: #355c7d; fill-opacity: 0.35; stroke: #355c7d; stroke-opacity: 0.35"/>
     <use xlink:href="#m685e8fc22a" x="695.218712" y="387.9" style="fill: #355c7d; fill-opacity: 0.35; stroke: #355c7d; stroke-opacity: 0.35"/>
     <use xlink:href="#m685e8fc22a" x="701.549424" y="344.005607" style="fill: #355c7d; fill-opacity: 0.35; stroke: #355c7d; stroke-opacity: 0.35"/>
     <use xlink:href="#m685e8fc22a" x="707.880137" y="373.104137" style="fill: #355c7d; fill-opacity: 0.35; stroke: #355c7d; stroke-opacity: 0.35"/>
     <use xlink:href="#m685e8fc22a" x="714.210849" y="300.234513" style="fill: #355c7d; fill-opacity: 0.35; stroke: #355c7d; stroke-opacity: 0.35"/>
     <use xlink:href="#m685e8fc22a" x="720.541562" y="338.087262" style="fill: #355c7d; fill-opacity: 0.35; stroke: #355c7d; stroke-opacity: 0.35"/>
     <use xlink:href="#m685e8fc22a" x="726.872274" y="266.080729" style="fill: #355c7d; fill-opacity: 0.35; stroke: #355c7d; stroke-opacity: 0.35"/>
     <use xlink:href="#m685e8fc22a" x="733.202987" y="343.512412" style="fill: #355c7d; fill-opacity: 0.35; stroke: #355c7d; stroke-opacity: 0.35"/>
     <use xlink:href="#m685e8fc22a" x="739.533699" y="336.977572" style="fill: #355c7d; fill-opacity: 0.35; stroke: #355c7d; stroke-opacity: 0.35"/>
     <use xlink:href="#m685e8fc22a" x="745.864412" y="342.62466" style="fill: #355c7d; fill-opacity: 0.35; stroke: #355c7d; stroke-opacity: 0.35"/>
     <use xlink:href="#m685e8fc22a" x="752.195124" y="205.121775" style="fill: #355c7d; fill-opacity: 0.35; stroke: #355c7d; stroke-opacity: 0.35"/>
     <use xlink:href="#m685e8fc22a" x="758.525837" y="314.043985" style="fill: #355c7d; fill-opacity: 0.35; stroke: #355c7d; stroke-opacity: 0.35"/>
     <use xlink:href="#m685e8fc22a" x="764.856549" y="270.815406" style="fill: #355c7d; fill-opacity: 0.35; stroke: #355c7d; stroke-opacity: 0.35"/>
     <use xlink:href="#m685e8fc22a" x="771.187262" y="257.203212" style="fill: #355c7d; fill-opacity: 0.35; stroke: #355c7d; stroke-opacity: 0.35"/>
     <use xlink:href="#m685e8fc22a" x="777.517975" y="288.373163" style="fill: #355c7d; fill-opacity: 0.35; stroke: #355c7d; stroke-opacity: 0.35"/>
     <use xlink:href="#m685e8fc22a" x="783.848687" y="311.125912" style="fill: #355c7d; fill-opacity: 0.35; stroke: #355c7d; stroke-opacity: 0.35"/>
     <use xlink:href="#m685e8fc22a" x="790.1794" y="286.301742" style="fill: #355c7d; fill-opacity: 0.35; stroke: #355c7d; stroke-opacity: 0.35"/>
     <use xlink:href="#m685e8fc22a" x="796.510112" y="220.70675" style="fill: #355c7d; fill-opacity: 0.35; stroke: #355c7d; stroke-opacity: 0.35"/>
     <use xlink:href="#m685e8fc22a" x="802.840825" y="299.946815" style="fill: #355c7d; fill-opacity: 0.35; stroke: #355c7d; stroke-opacity: 0.35"/>
     <use xlink:href="#m685e8fc22a" x="809.171537" y="283.342569" style="fill: #355c7d; fill-opacity: 0.35; stroke: #355c7d; stroke-opacity: 0.35"/>
     <use xlink:href="#m685e8fc22a" x="815.50225" y="257.860806" style="fill: #355c7d; fill-opacity: 0.35; stroke: #355c7d; stroke-opacity: 0.35"/>
     <use xlink:href="#m685e8fc22a" x="821.832962" y="352.636527" style="fill: #355c7d; fill-opacity: 0.35; stroke: #355c7d; stroke-opacity: 0.35"/>
     <use xlink:href="#m685e8fc22a" x="828.163675" y="133.575558" style="fill: #355c7d; fill-opacity: 0.35; stroke: #355c7d; stroke-opacity: 0.35"/>
     <use xlink:href="#m685e8fc22a" x="834.494387" y="256.357734" style="fill: #355c7d; fill-opacity: 0.35; stroke: #355c7d; stroke-opacity: 0.35"/>
     <use xlink:href="#m685e8fc22a" x="840.8251" y="300.851007" style="fill: #355c7d; fill-opacity: 0.35; stroke: #355c7d; stroke-opacity: 0.35"/>
     <use xlink:href="#m685e8fc22a" x="847.155812" y="294.686064" style="fill: #355c7d; fill-opacity: 0.35; stroke: #355c7d; stroke-opacity: 0.35"/>
     <use xlink:href="#m685e8fc22a" x="853.486525" y="265.751932" style="fill: #355c7d; fill-opacity: 0.35; stroke: #355c7d; stroke-opacity: 0.35"/>
     <use xlink:href="#m685e8fc22a" x="859.817237" y="241.420958" style="fill: #355c7d; fill-opacity: 0.35; stroke: #355c7d; stroke-opacity: 0.35"/>
     <use xlink:href="#m685e8fc22a" x="866.14795" y="219.720359" style="fill: #355c7d; fill-opacity: 0.35; stroke: #355c7d; stroke-opacity: 0.35"/>
     <use xlink:href="#m685e8fc22a" x="872.478662" y="259.175993" style="fill: #355c7d; fill-opacity: 0.35; stroke: #355c7d; stroke-opacity: 0.35"/>
     <use xlink:href="#m685e8fc22a" x="878.809375" y="85.9" style="fill: #355c7d; fill-opacity: 0.35; stroke: #355c7d; stroke-opacity: 0.35"/>
     <use xlink:href="#m685e8fc22a" x="885.140088" y="286.055144" style="fill: #355c7d; fill-opacity: 0.35; stroke: #355c7d; stroke-opacity: 0.35"/>
     <use xlink:href="#m685e8fc22a" x="891.4708" y="240.57548" style="fill: #355c7d; fill-opacity: 0.35; stroke: #355c7d; stroke-opacity: 0.35"/>
     <use xlink:href="#m685e8fc22a" x="897.801513" y="241.062271" style="fill: #355c7d; fill-opacity: 0.35; stroke: #355c7d; stroke-opacity: 0.35"/>
     <use xlink:href="#m685e8fc22a" x="904.132225" y="279.814325" style="fill: #355c7d; fill-opacity: 0.35; stroke: #355c7d; stroke-opacity: 0.35"/>
     <use xlink:href="#m685e8fc22a" x="910.462938" y="218.09986" style="fill: #355c7d; fill-opacity: 0.35; stroke: #355c7d; stroke-opacity: 0.35"/>
     <use xlink:href="#m685e8fc22a" x="916.79365" y="173.524388" style="fill: #355c7d; fill-opacity: 0.35; stroke: #355c7d; stroke-opacity: 0.35"/>
     <use xlink:href="#m685e8fc22a" x="923.124363" y="220.70675" style="fill: #355c7d; fill-opacity: 0.35; stroke: #355c7d; stroke-opacity: 0.35"/>
     <use xlink:href="#m685e8fc22a" x="929.455075" y="225.870796" style="fill: #355c7d; fill-opacity: 0.35; stroke: #355c7d; stroke-opacity: 0.35"/>
     <use xlink:href="#m685e8fc22a" x="935.785788" y="230.141793" style="fill: #355c7d; fill-opacity: 0.35; stroke: #355c7d; stroke-opacity: 0.35"/>
     <use xlink:href="#m685e8fc22a" x="942.1165" y="223.454553" style="fill: #355c7d; fill-opacity: 0.35; stroke: #355c7d; stroke-opacity: 0.35"/>
     <use xlink:href="#m685e8fc22a" x="948.447213" y="249.664367" style="fill: #355c7d; fill-opacity: 0.35; stroke: #355c7d; stroke-opacity: 0.35"/>
     <use xlink:href="#m685e8fc22a" x="954.777925" y="271.70896" style="fill: #355c7d; fill-opacity: 0.35; stroke: #355c7d; stroke-opacity: 0.35"/>
     <use xlink:href="#m685e8fc22a" x="961.108638" y="225.696727" style="fill: #355c7d; fill-opacity: 0.35; stroke: #355c7d; stroke-opacity: 0.35"/>
     <use xlink:href="#m685e8fc22a" x="967.43935" y="263.017726" style="fill: #355c7d; fill-opacity: 0.35; stroke: #355c7d; stroke-opacity: 0.35"/>
     <use xlink:href="#m685e8fc22a" x="973.770063" y="235.749211" style="fill: #355c7d; fill-opacity: 0.35; stroke: #355c7d; stroke-opacity: 0.35"/>
     <use xlink:href="#m685e8fc22a" x="980.100775" y="237.694593" style="fill: #355c7d; fill-opacity: 0.35; stroke: #355c7d; stroke-opacity: 0.35"/>
     <use xlink:href="#m685e8fc22a" x="986.431488" y="283.297733" style="fill: #355c7d; fill-opacity: 0.35; stroke: #355c7d; stroke-opacity: 0.35"/>
     <use xlink:href="#m685e8fc22a" x="992.762201" y="274.65" style="fill: #355c7d; fill-opacity: 0.35; stroke: #355c7d; stroke-opacity: 0.35"/>
     <use xlink:href="#m685e8fc22a" x="999.092913" y="231.55705" style="fill: #355c7d; fill-opacity: 0.35; stroke: #355c7d; stroke-opacity: 0.35"/>
     <use xlink:href="#m685e8fc22a" x="1005.423626" y="276.201957" style="fill: #355c7d; fill-opacity: 0.35; stroke: #355c7d; stroke-opacity: 0.35"/>
     <use xlink:href="#m685e8fc22a" x="1011.754338" y="227.611486" style="fill: #355c7d; fill-opacity: 0.35; stroke: #355c7d; stroke-opacity: 0.35"/>
     <use xlink:href="#m685e8fc22a" x="1018.085051" y="233.226326" style="fill: #355c7d; fill-opacity: 0.35; stroke: #355c7d; stroke-opacity: 0.35"/>
     <use xlink:href="#m685e8fc22a" x="1024.415763" y="261.641971" style="fill: #355c7d; fill-opacity: 0.35; stroke: #355c7d; stroke-opacity: 0.35"/>
     <use xlink:href="#m685e8fc22a" x="1030.746476" y="243.957392" style="fill: #355c7d; fill-opacity: 0.35; stroke: #355c7d; stroke-opacity: 0.35"/>
     <use xlink:href="#m685e8fc22a" x="1037.077188" y="223.468645" style="fill: #355c7d; fill-opacity: 0.35; stroke: #355c7d; stroke-opacity: 0.35"/>
     <use xlink:href="#m685e8fc22a" x="1043.407901" y="243.788296" style="fill: #355c7d; fill-opacity: 0.35; stroke: #355c7d; stroke-opacity: 0.35"/>
     <use xlink:href="#m685e8fc22a" x="1049.738613" y="280.760546" style="fill: #355c7d; fill-opacity: 0.35; stroke: #355c7d; stroke-opacity: 0.35"/>
     <use xlink:href="#m685e8fc22a" x="1056.069326" y="235.551932" style="fill: #355c7d; fill-opacity: 0.35; stroke: #355c7d; stroke-opacity: 0.35"/>
     <use xlink:href="#m685e8fc22a" x="1062.400038" y="233.999541" style="fill: #355c7d; fill-opacity: 0.35; stroke: #355c7d; stroke-opacity: 0.35"/>
     <use xlink:href="#m685e8fc22a" x="1068.730751" y="251.129121" style="fill: #355c7d; fill-opacity: 0.35; stroke: #355c7d; stroke-opacity: 0.35"/>
     <use xlink:href="#m685e8fc22a" x="1075.061463" y="190.257293" style="fill: #355c7d; fill-opacity: 0.35; stroke: #355c7d; stroke-opacity: 0.35"/>
     <use xlink:href="#m685e8fc22a" x="1081.392176" y="188.114752" style="fill: #355c7d; fill-opacity: 0.35; stroke: #355c7d; stroke-opacity: 0.35"/>
     <use xlink:href="#m685e8fc22a" x="1087.722889" y="179.396701" style="fill: #355c7d; fill-opacity: 0.35; stroke: #355c7d; stroke-opacity: 0.35"/>
     <use xlink:href="#m685e8fc22a" x="1094.053601" y="221.049843" style="fill: #355c7d; fill-opacity: 0.35; stroke: #355c7d; stroke-opacity: 0.35"/>
     <use xlink:href="#m685e8fc22a" x="1100.384314" y="182.465135" style="fill: #355c7d; fill-opacity: 0.35; stroke: #355c7d; stroke-opacity: 0.35"/>
     <use xlink:href="#m685e8fc22a" x="1106.715026" y="177.469951" style="fill: #355c7d; fill-opacity: 0.35; stroke: #355c7d; stroke-opacity: 0.35"/>
     <use xlink:href="#m685e8fc22a" x="1113.045739" y="159.312423" style="fill: #355c7d; fill-opacity: 0.35; stroke: #355c7d; stroke-opacity: 0.35"/>
    </g>
   </g>
   <g id="patch_8">
    <path d="M 621.149375 403 
L 621.149375 70.8 
" style="fill: none; stroke: #000000; stroke-width: 0.8; stroke-linejoin: miter; stroke-linecap: square"/>
   </g>
   <g id="patch_9">
    <path d="M 1136.469375 403 
L 1136.469375 70.8 
" style="fill: none; stroke: #000000; stroke-width: 0.8; stroke-linejoin: miter; stroke-linecap: square"/>
   </g>
   <g id="patch_10">
    <path d="M 621.149375 403 
L 1136.469375 403 
" style="fill: none; stroke: #000000; stroke-width: 0.8; stroke-linejoin: miter; stroke-linecap: square"/>
   </g>
   <g id="patch_11">
    <path d="M 621.149375 70.8 
L 1136.469375 70.8 
" style="fill: none; stroke: #000000; stroke-width: 0.8; stroke-linejoin: miter; stroke-linecap: square"/>
   </g>
   <g id="line2d_42">
    <path d="M 644.573011 251.613664 
L 650.903724 262.973598 
L 657.234436 256.966478 
L 663.565149 264.054401 
L 669.895861 290.0458 
L 676.226574 282.532789 
L 682.557287 300.702109 
L 688.887999 322.915631 
L 695.218712 345.024878 
L 701.549424 345.148176 
L 707.880137 348.666304 
L 714.210849 324.30245 
L 720.541562 324.203811 
L 726.872274 316.978498 
L 733.202987 325.456527 
L 739.533699 298.86343 
L 745.864412 308.456081 
L 752.195124 293.916679 
L 758.525837 277.961807 
L 764.856549 267.111508 
L 771.187262 288.312335 
L 777.517975 282.763887 
L 783.848687 272.742156 
L 790.1794 281.290876 
L 796.510112 280.284758 
L 802.840825 269.631737 
L 809.171537 282.898694 
L 815.50225 265.472455 
L 821.832962 256.754639 
L 828.163675 260.256326 
L 834.494387 267.621378 
L 840.8251 250.244459 
L 847.155812 271.813539 
L 853.486525 264.486064 
L 859.817237 256.151062 
L 866.14795 214.393849 
L 872.478662 218.454491 
L 878.809375 218.285395 
L 885.140088 222.553778 
L 891.4708 226.681444 
L 897.801513 253.121416 
L 904.132225 230.615265 
L 910.462938 226.641519 
L 916.79365 223.603224 
L 923.124363 213.668717 
L 929.455075 214.739656 
L 935.785788 229.967652 
L 942.1165 240.168094 
L 948.447213 240.13328 
L 954.777925 246.708467 
L 961.108638 249.167398 
L 967.43935 246.773443 
L 973.770063 249.091198 
L 980.100775 258.881853 
L 986.431488 252.589717 
L 992.762201 260.680267 
L 999.092913 258.663645 
L 1005.423626 248.649364 
L 1011.754338 246.047758 
L 1018.085051 248.527826 
L 1024.415763 237.981164 
L 1030.746476 241.216526 
L 1037.077188 250.72337 
L 1043.407901 245.505362 
L 1049.738613 243.513792 
L 1056.069326 249.045887 
L 1062.400038 238.339687 
L 1068.730751 219.810528 
L 1075.061463 208.579482 
L 1081.392176 205.989542 
L 1087.722889 192.256745 
L 1094.053601 189.699277 
L 1100.384314 183.938811 
L 1106.715026 185.074338 
L 1113.045739 173.082503 
" clip-path="url(#p32d019dfcd)" style="fill: none; stroke: #355c7d; stroke-width: 2.5; stroke-linecap: square"/>
   </g>
   <g id="text_34">
    <!-- Song Length -->
    <g transform="translate(828.9825 64.8) scale(0.14 -0.14)">
     <defs>
      <path id="DejaVuSerif-Bold-53" d="M 494 225 
L 494 1331 
L 891 1331 
Q 981 806 1318 547 
Q 1656 288 2253 288 
Q 2738 288 2991 472 
Q 3244 656 3244 1013 
Q 3244 1294 3072 1450 
Q 2900 1606 2363 1741 
L 1663 1913 
Q 978 2088 700 2398 
Q 422 2709 422 3284 
Q 422 3978 883 4364 
Q 1344 4750 2175 4750 
Q 2584 4750 3026 4681 
Q 3469 4613 3944 4475 
L 3944 3444 
L 3547 3444 
Q 3456 3925 3150 4148 
Q 2844 4372 2278 4372 
Q 1816 4372 1580 4211 
Q 1344 4050 1344 3731 
Q 1344 3441 1506 3289 
Q 1669 3138 2303 2975 
L 3003 2803 
Q 3653 2641 3945 2297 
Q 4238 1953 4238 1350 
Q 4238 644 3750 276 
Q 3263 -91 2316 -91 
Q 1859 -91 1409 -12 
Q 959 66 494 225 
z
" transform="scale(0.015625)"/>
      <path id="DejaVuSerif-Bold-6f" d="M 2138 263 
Q 2488 263 2630 563 
Q 2772 863 2772 1663 
Q 2772 2463 2631 2761 
Q 2491 3059 2138 3059 
Q 1784 3059 1640 2757 
Q 1497 2456 1497 1663 
Q 1497 869 1640 566 
Q 1784 263 2138 263 
z
M 2138 -91 
Q 1259 -91 761 376 
Q 263 844 263 1663 
Q 263 2484 761 2948 
Q 1259 3413 2138 3413 
Q 3019 3413 3516 2948 
Q 4013 2484 4013 1663 
Q 4013 844 3514 376 
Q 3016 -91 2138 -91 
z
" transform="scale(0.015625)"/>
      <path id="DejaVuSerif-Bold-6e" d="M 219 0 
L 219 378 
L 691 378 
L 691 2944 
L 219 2944 
L 219 3322 
L 1797 3322 
L 1797 2853 
Q 1997 3150 2253 3281 
Q 2509 3413 2900 3413 
Q 3459 3413 3745 3083 
Q 4031 2753 4031 2113 
L 4031 378 
L 4506 378 
L 4506 0 
L 2522 0 
L 2522 378 
L 2925 378 
L 2925 2144 
Q 2925 2566 2817 2730 
Q 2709 2894 2444 2894 
Q 2109 2894 1953 2648 
Q 1797 2403 1797 1869 
L 1797 378 
L 2203 378 
L 2203 0 
L 219 0 
z
" transform="scale(0.015625)"/>
      <path id="DejaVuSerif-Bold-67" d="M 3853 2944 
L 3853 44 
Q 3853 -656 3354 -1039 
Q 2856 -1422 1947 -1422 
Q 1616 -1422 1275 -1370 
Q 934 -1319 575 -1216 
L 575 -422 
L 928 -422 
Q 975 -750 1192 -909 
Q 1409 -1069 1813 -1069 
Q 2325 -1069 2536 -823 
Q 2747 -578 2747 44 
L 2747 422 
Q 2606 163 2367 36 
Q 2128 -91 1778 -91 
Q 1072 -91 667 378 
Q 263 847 263 1663 
Q 263 2481 667 2947 
Q 1072 3413 1778 3413 
Q 2128 3413 2367 3286 
Q 2606 3159 2747 2900 
L 2747 3322 
L 4325 3322 
L 4325 2944 
L 3853 2944 
z
M 2747 1825 
Q 2747 2406 2597 2665 
Q 2447 2925 2119 2925 
Q 1775 2925 1636 2651 
Q 1497 2378 1497 1663 
Q 1497 947 1637 672 
Q 1778 397 2119 397 
Q 2447 397 2597 656 
Q 2747 916 2747 1497 
L 2747 1825 
z
" transform="scale(0.015625)"/>
      <path id="DejaVuSerif-Bold-68" d="M 219 0 
L 219 378 
L 691 378 
L 691 4488 
L 197 4488 
L 197 4863 
L 1797 4863 
L 1797 2853 
Q 1997 3150 2253 3281 
Q 2509 3413 2900 3413 
Q 3459 3413 3745 3083 
Q 4031 2753 4031 2113 
L 4031 378 
L 4506 378 
L 4506 0 
L 2522 0 
L 2522 378 
L 2925 378 
L 2925 2144 
Q 2925 2566 2817 2730 
Q 2709 2894 2444 2894 
Q 2109 2894 1953 2648 
Q 1797 2403 1797 1869 
L 1797 378 
L 2203 378 
L 2203 0 
L 219 0 
z
" transform="scale(0.015625)"/>
     </defs>
     <use xlink:href="#DejaVuSerif-Bold-53"/>
     <use xlink:href="#DejaVuSerif-Bold-6f" x="72.216797"/>
     <use xlink:href="#DejaVuSerif-Bold-6e" x="138.916016"/>
     <use xlink:href="#DejaVuSerif-Bold-67" x="211.621094"/>
     <use xlink:href="#DejaVuSerif-Bold-20" x="281.542969"/>
     <use xlink:href="#DejaVuSerif-Bold-4c" x="316.357422"/>
     <use xlink:href="#DejaVuSerif-Bold-65" x="386.669922"/>
     <use xlink:href="#DejaVuSerif-Bold-6e" x="450.292969"/>
     <use xlink:href="#DejaVuSerif-Bold-67" x="522.998047"/>
     <use xlink:href="#DejaVuSerif-Bold-74" x="592.919922"/>
     <use xlink:href="#DejaVuSerif-Bold-68" x="639.111328"/>
    </g>
   </g>
  </g>
  <g id="text_35">
   <!-- Lexical Diversity Over 75 Years of Sanremo (19512025) -->
   <g style="fill: #2a363b" transform="translate(303.786328 20.117344) scale(0.17 -0.17)">
    <defs>
     <path id="DejaVuSerif-Bold-4f" d="M 2784 288 
Q 3381 288 3672 791 
Q 3963 1294 3963 2328 
Q 3963 3366 3672 3869 
Q 3381 4372 2784 4372 
Q 2191 4372 1898 3864 
Q 1606 3356 1606 2328 
Q 1606 1303 1898 795 
Q 2191 288 2784 288 
z
M 2784 -91 
Q 1606 -91 937 553 
Q 269 1197 269 2328 
Q 269 3459 939 4104 
Q 1609 4750 2784 4750 
Q 3963 4750 4631 4106 
Q 5300 3463 5300 2328 
Q 5300 1197 4629 553 
Q 3959 -91 2784 -91 
z
" transform="scale(0.015625)"/>
     <path id="DejaVuSerif-Bold-37" d="M 3922 3872 
L 1997 0 
L 1363 0 
L 3238 3781 
L 934 3781 
L 934 3150 
L 506 3150 
L 506 4666 
L 3922 4666 
L 3922 3872 
z
" transform="scale(0.015625)"/>
     <path id="DejaVuSerif-Bold-35" d="M 3609 4666 
L 3609 3847 
L 1113 3847 
L 1113 2822 
Q 1319 2981 1572 3062 
Q 1825 3144 2106 3144 
Q 2969 3144 3469 2708 
Q 3969 2272 3969 1522 
Q 3969 759 3469 334 
Q 2969 -91 2069 -91 
Q 1688 -91 1311 -28 
Q 934 34 525 166 
L 525 1184 
L 900 1184 
Q 919 725 1139 500 
Q 1359 275 1791 275 
Q 2250 275 2472 583 
Q 2694 891 2694 1522 
Q 2694 2144 2476 2451 
Q 2259 2759 1819 2759 
Q 1581 2759 1395 2661 
Q 1209 2563 1050 2356 
L 738 2356 
L 738 4666 
L 3609 4666 
z
" transform="scale(0.015625)"/>
     <path id="DejaVuSerif-Bold-59" d="M 1100 0 
L 1100 378 
L 1728 378 
L 1728 1931 
L 341 4288 
L -56 4288 
L -56 4666 
L 2181 4666 
L 2181 4288 
L 1663 4288 
L 2713 2509 
L 3756 4288 
L 3291 4288 
L 3291 4666 
L 4628 4666 
L 4628 4288 
L 4231 4288 
L 2938 2094 
L 2938 378 
L 3566 378 
L 3566 0 
L 1100 0 
z
" transform="scale(0.015625)"/>
     <path id="DejaVuSerif-Bold-66" d="M 3097 4031 
L 2747 4031 
Q 2722 4275 2605 4394 
Q 2488 4513 2272 4513 
Q 2022 4513 1909 4333 
Q 1797 4153 1797 3750 
L 1797 3322 
L 2631 3322 
L 2631 2944 
L 1797 2944 
L 1797 378 
L 2438 378 
L 2438 0 
L 219 0 
L 219 378 
L 691 378 
L 691 2944 
L 197 2944 
L 197 3322 
L 691 3322 
L 691 3738 
Q 691 4291 1044 4577 
Q 1397 4863 2081 4863 
Q 2347 4863 2600 4833 
Q 2853 4803 3097 4744 
L 3097 4031 
z
" transform="scale(0.015625)"/>
     <path id="DejaVuSerif-Bold-6d" d="M 3884 2778 
Q 4116 3109 4384 3261 
Q 4653 3413 5013 3413 
Q 5584 3413 5867 3089 
Q 6150 2766 6150 2113 
L 6150 378 
L 6625 378 
L 6625 0 
L 4647 0 
L 4647 378 
L 5044 378 
L 5044 1947 
Q 5044 2569 4948 2731 
Q 4853 2894 4594 2894 
Q 4300 2894 4137 2667 
Q 3975 2441 3975 2022 
L 3975 378 
L 4372 378 
L 4372 0 
L 2472 0 
L 2472 378 
L 2869 378 
L 2869 1947 
Q 2869 2569 2772 2731 
Q 2675 2894 2419 2894 
Q 2122 2894 1959 2667 
Q 1797 2441 1797 2022 
L 1797 378 
L 2194 378 
L 2194 0 
L 219 0 
L 219 378 
L 691 378 
L 691 2944 
L 219 2944 
L 219 3322 
L 1797 3322 
L 1797 2853 
Q 1991 3144 2241 3278 
Q 2491 3413 2834 3413 
Q 3241 3413 3494 3258 
Q 3747 3103 3884 2778 
z
" transform="scale(0.015625)"/>
     <path id="DejaVuSerif-Bold-28" d="M 2694 -997 
Q 1641 -606 1122 122 
Q 603 850 603 1931 
Q 603 3013 1115 3731 
Q 1628 4450 2694 4863 
L 2694 4488 
Q 2200 4188 1983 3598 
Q 1766 3009 1766 1931 
Q 1766 856 1983 267 
Q 2200 -322 2694 -622 
L 2694 -997 
z
" transform="scale(0.015625)"/>
     <path id="DejaVuSerif-Bold-31" d="M 878 0 
L 878 378 
L 1753 378 
L 1753 4153 
L 781 3578 
L 781 4044 
L 1953 4750 
L 2938 4750 
L 2938 378 
L 3816 378 
L 3816 0 
L 878 0 
z
" transform="scale(0.015625)"/>
     <path id="DejaVuSerif-Bold-39" d="M 2181 4384 
Q 1859 4384 1723 4111 
Q 1588 3838 1588 3163 
Q 1588 2488 1723 2214 
Q 1859 1941 2181 1941 
Q 2503 1941 2640 2214 
Q 2778 2488 2778 3163 
Q 2778 3838 2640 4111 
Q 2503 4384 2181 4384 
z
M 2878 1900 
Q 2672 1734 2420 1651 
Q 2169 1569 1875 1569 
Q 1163 1569 755 1986 
Q 347 2403 347 3138 
Q 347 3913 803 4331 
Q 1259 4750 2106 4750 
Q 3063 4750 3556 4172 
Q 4050 3594 4050 2478 
Q 4050 1206 3503 557 
Q 2956 -91 1881 -91 
Q 1600 -91 1278 -44 
Q 956 3 588 97 
L 588 922 
L 966 922 
Q 1044 603 1261 439 
Q 1478 275 1825 275 
Q 2375 275 2625 658 
Q 2875 1041 2878 1900 
z
" transform="scale(0.015625)"/>
     <path id="DejaVuSerif-Bold-2013" d="M 344 2075 
L 2856 2075 
L 2856 1325 
L 344 1325 
L 344 2075 
z
" transform="scale(0.015625)"/>
     <path id="DejaVuSerif-Bold-32" d="M 844 3513 
L 469 3513 
L 469 4519 
Q 850 4634 1223 4692 
Q 1597 4750 1978 4750 
Q 2869 4750 3367 4386 
Q 3866 4022 3866 3372 
Q 3866 2909 3591 2542 
Q 3316 2175 2541 1672 
L 1241 819 
L 3450 819 
L 3450 1369 
L 3878 1369 
L 3878 0 
L 428 0 
L 428 763 
L 1119 1241 
Q 2003 1850 2297 2278 
Q 2591 2706 2591 3278 
Q 2591 3819 2367 4101 
Q 2144 4384 1716 4384 
Q 1347 4384 1125 4161 
Q 903 3938 844 3513 
z
" transform="scale(0.015625)"/>
     <path id="DejaVuSerif-Bold-30" d="M 2228 275 
Q 2603 275 2742 615 
Q 2881 956 2881 2328 
Q 2881 3691 2742 4037 
Q 2603 4384 2228 4384 
Q 1853 4384 1714 4043 
Q 1575 3703 1575 2328 
Q 1575 956 1714 615 
Q 1853 275 2228 275 
z
M 2228 -91 
Q 1294 -91 797 532 
Q 300 1156 300 2328 
Q 300 3500 797 4125 
Q 1294 4750 2228 4750 
Q 3159 4750 3656 4125 
Q 4153 3500 4153 2328 
Q 4153 1156 3656 532 
Q 3159 -91 2228 -91 
z
" transform="scale(0.015625)"/>
     <path id="DejaVuSerif-Bold-29" d="M 325 -997 
L 325 -622 
Q 819 -322 1036 267 
Q 1253 856 1253 1931 
Q 1253 3009 1036 3598 
Q 819 4188 325 4488 
L 325 4863 
Q 1391 4450 1905 3731 
Q 2419 3013 2419 1931 
Q 2419 850 1898 122 
Q 1378 -606 325 -997 
z
" transform="scale(0.015625)"/>
    </defs>
    <use xlink:href="#DejaVuSerif-Bold-4c"/>
    <use xlink:href="#DejaVuSerif-Bold-65" x="70.3125"/>
    <use xlink:href="#DejaVuSerif-Bold-78" x="133.935547"/>
    <use xlink:href="#DejaVuSerif-Bold-69" x="193.554688"/>
    <use xlink:href="#DejaVuSerif-Bold-63" x="231.542969"/>
    <use xlink:href="#DejaVuSerif-Bold-61" x="292.431641"/>
    <use xlink:href="#DejaVuSerif-Bold-6c" x="357.226562"/>
    <use xlink:href="#DejaVuSerif-Bold-20" x="395.214844"/>
    <use xlink:href="#DejaVuSerif-Bold-44" x="430.029297"/>
    <use xlink:href="#DejaVuSerif-Bold-69" x="516.748047"/>
    <use xlink:href="#DejaVuSerif-Bold-76" x="554.736328"/>
    <use xlink:href="#DejaVuSerif-Bold-65" x="612.841797"/>
    <use xlink:href="#DejaVuSerif-Bold-72" x="676.464844"/>
    <use xlink:href="#DejaVuSerif-Bold-73" x="729.150391"/>
    <use xlink:href="#DejaVuSerif-Bold-69" x="785.449219"/>
    <use xlink:href="#DejaVuSerif-Bold-74" x="823.4375"/>
    <use xlink:href="#DejaVuSerif-Bold-79" x="869.628906"/>
    <use xlink:href="#DejaVuSerif-Bold-20" x="927.734375"/>
    <use xlink:href="#DejaVuSerif-Bold-4f" x="962.548828"/>
    <use xlink:href="#DejaVuSerif-Bold-76" x="1049.658203"/>
    <use xlink:href="#DejaVuSerif-Bold-65" x="1107.763672"/>
    <use xlink:href="#DejaVuSerif-Bold-72" x="1171.386719"/>
    <use xlink:href="#DejaVuSerif-Bold-20" x="1224.072266"/>
    <use xlink:href="#DejaVuSerif-Bold-37" x="1258.886719"/>
    <use xlink:href="#DejaVuSerif-Bold-35" x="1328.466797"/>
    <use xlink:href="#DejaVuSerif-Bold-20" x="1398.046875"/>
    <use xlink:href="#DejaVuSerif-Bold-59" x="1432.861328"/>
    <use xlink:href="#DejaVuSerif-Bold-65" x="1495.498047"/>
    <use xlink:href="#DejaVuSerif-Bold-61" x="1559.121094"/>
    <use xlink:href="#DejaVuSerif-Bold-72" x="1623.916016"/>
    <use xlink:href="#DejaVuSerif-Bold-73" x="1676.601562"/>
    <use xlink:href="#DejaVuSerif-Bold-20" x="1732.900391"/>
    <use xlink:href="#DejaVuSerif-Bold-6f" x="1767.714844"/>
    <use xlink:href="#DejaVuSerif-Bold-66" x="1834.414062"/>
    <use xlink:href="#DejaVuSerif-Bold-20" x="1877.431641"/>
    <use xlink:href="#DejaVuSerif-Bold-53" x="1912.246094"/>
    <use xlink:href="#DejaVuSerif-Bold-61" x="1984.462891"/>
    <use xlink:href="#DejaVuSerif-Bold-6e" x="2049.257812"/>
    <use xlink:href="#DejaVuSerif-Bold-72" x="2121.962891"/>
    <use xlink:href="#DejaVuSerif-Bold-65" x="2174.648438"/>
    <use xlink:href="#DejaVuSerif-Bold-6d" x="2238.271484"/>
    <use xlink:href="#DejaVuSerif-Bold-6f" x="2344.082031"/>
    <use xlink:href="#DejaVuSerif-Bold-20" x="2410.78125"/>
    <use xlink:href="#DejaVuSerif-Bold-28" x="2445.595703"/>
    <use xlink:href="#DejaVuSerif-Bold-31" x="2492.910156"/>
    <use xlink:href="#DejaVuSerif-Bold-39" x="2562.490234"/>
    <use xlink:href="#DejaVuSerif-Bold-35" x="2632.070312"/>
    <use xlink:href="#DejaVuSerif-Bold-31" x="2701.650391"/>
    <use xlink:href="#DejaVuSerif-Bold-2013" x="2771.230469"/>
    <use xlink:href="#DejaVuSerif-Bold-32" x="2821.230469"/>
    <use xlink:href="#DejaVuSerif-Bold-30" x="2890.810547"/>
    <use xlink:href="#DejaVuSerif-Bold-32" x="2960.390625"/>
    <use xlink:href="#DejaVuSerif-Bold-35" x="3029.970703"/>
    <use xlink:href="#DejaVuSerif-Bold-29" x="3099.550781"/>
   </g>
  </g>
 </g>
 <defs>
  <clipPath id="pdade1d660f">
   <rect x="52.079375" y="70.8" width="515.32" height="332.2"/>
  </clipPath>
  <clipPath id="p32d019dfcd">
   <rect x="621.149375" y="70.8" width="515.32" height="332.2"/>
  </clipPath>
 </defs>
</svg>
