<?xml version="1.0" encoding="utf-8" standalone="no"?>
<!DOCTYPE svg PUBLIC "-//W3C//DTD SVG 1.1//EN"
  "http://www.w3.org/Graphics/SVG/1.1/DTD/svg11.dtd">
<svg xmlns:xlink="http://www.w3.org/1999/xlink" width="999.516875pt" height="350.289219pt" viewBox="0 0 999.516875 350.289219" xmlns="http://www.w3.org/2000/svg" version="1.1">
 <metadata>
  <rdf:RDF xmlns:dc="http://purl.org/dc/elements/1.1/" xmlns:cc="http://creativecommons.org/ns#" xmlns:rdf="http://www.w3.org/1999/02/22-rdf-syntax-ns#">
   <cc:Work>
    <dc:type rdf:resource="http://purl.org/dc/dcmitype/StillImage"/>
    <dc:date>2026-02-23T01:09:44.125649</dc:date>
    <dc:format>image/svg+xml</dc:format>
    <dc:creator>
     <cc:Agent>
      <dc:title>Matplotlib v3.9.4, https://matplotlib.org/</dc:title>
     </cc:Agent>
    </dc:creator>
   </cc:Work>
  </rdf:RDF>
 </metadata>
 <defs>
  <style type="text/css">*{stroke-linejoin: round; stroke-linecap: butt}</style>
 </defs>
 <g id="figure_1">
  <g id="patch_1">
   <path d="M 0 350.289219 
L 999.516875 350.289219 
L 999.516875 0 
L 0 0 
z
" style="fill: #fafafa"/>
  </g>
  <g id="axes_1">
   <g id="patch_2">
    <path d="M 45.716875 310.797344 
L 992.316875 310.797344 
L 992.316875 26.117344 
L 45.716875 26.117344 
z
" style="fill: #fafafa"/>
   </g>
   <g id="matplotlib.axis_1">
    <g id="xtick_1">
     <g id="line2d_1">
      <defs>
       <path id="md0977d8669" d="M 0 0 
L 0 3.5 
" style="stroke: #000000; stroke-width: 0.8"/>
      </defs>
      <g>
       <use xlink:href="#md0977d8669" x="77.115155" y="310.797344" style="stroke: #000000; stroke-width: 0.8"/>
      </g>
     </g>
     <g id="text_1">
      <!-- 1950 -->
      <g transform="translate(64.390155 325.395781) scale(0.1 -0.1)">
       <defs>
        <path id="DejaVuSans-31" d="M 794 531 
L 1825 531 
L 1825 4091 
L 703 3866 
L 703 4441 
L 1819 4666 
L 2450 4666 
L 2450 531 
L 3481 531 
L 3481 0 
L 794 0 
L 794 531 
z
" transform="scale(0.015625)"/>
        <path id="DejaVuSans-39" d="M 703 97 
L 703 672 
Q 941 559 1184 500 
Q 1428 441 1663 441 
Q 2288 441 2617 861 
Q 2947 1281 2994 2138 
Q 2813 1869 2534 1725 
Q 2256 1581 1919 1581 
Q 1219 1581 811 2004 
Q 403 2428 403 3163 
Q 403 3881 828 4315 
Q 1253 4750 1959 4750 
Q 2769 4750 3195 4129 
Q 3622 3509 3622 2328 
Q 3622 1225 3098 567 
Q 2575 -91 1691 -91 
Q 1453 -91 1209 -44 
Q 966 3 703 97 
z
M 1959 2075 
Q 2384 2075 2632 2365 
Q 2881 2656 2881 3163 
Q 2881 3666 2632 3958 
Q 2384 4250 1959 4250 
Q 1534 4250 1286 3958 
Q 1038 3666 1038 3163 
Q 1038 2656 1286 2365 
Q 1534 2075 1959 2075 
z
" transform="scale(0.015625)"/>
        <path id="DejaVuSans-35" d="M 691 4666 
L 3169 4666 
L 3169 4134 
L 1269 4134 
L 1269 2991 
Q 1406 3038 1543 3061 
Q 1681 3084 1819 3084 
Q 2600 3084 3056 2656 
Q 3513 2228 3513 1497 
Q 3513 744 3044 326 
Q 2575 -91 1722 -91 
Q 1428 -91 1123 -41 
Q 819 9 494 109 
L 494 744 
Q 775 591 1075 516 
Q 1375 441 1709 441 
Q 2250 441 2565 725 
Q 2881 1009 2881 1497 
Q 2881 1984 2565 2268 
Q 2250 2553 1709 2553 
Q 1456 2553 1204 2497 
Q 953 2441 691 2322 
L 691 4666 
z
" transform="scale(0.015625)"/>
        <path id="DejaVuSans-30" d="M 2034 4250 
Q 1547 4250 1301 3770 
Q 1056 3291 1056 2328 
Q 1056 1369 1301 889 
Q 1547 409 2034 409 
Q 2525 409 2770 889 
Q 3016 1369 3016 2328 
Q 3016 3291 2770 3770 
Q 2525 4250 2034 4250 
z
M 2034 4750 
Q 2819 4750 3233 4129 
Q 3647 3509 3647 2328 
Q 3647 1150 3233 529 
Q 2819 -91 2034 -91 
Q 1250 -91 836 529 
Q 422 1150 422 2328 
Q 422 3509 836 4129 
Q 1250 4750 2034 4750 
z
" transform="scale(0.015625)"/>
       </defs>
       <use xlink:href="#DejaVuSans-31"/>
       <use xlink:href="#DejaVuSans-39" x="63.623047"/>
       <use xlink:href="#DejaVuSans-35" x="127.246094"/>
       <use xlink:href="#DejaVuSans-30" x="190.869141"/>
      </g>
     </g>
    </g>
    <g id="xtick_2">
     <g id="line2d_2">
      <g>
       <use xlink:href="#md0977d8669" x="193.405081" y="310.797344" style="stroke: #000000; stroke-width: 0.8"/>
      </g>
     </g>
     <g id="text_2">
      <!-- 1960 -->
      <g transform="translate(180.680081 325.395781) scale(0.1 -0.1)">
       <defs>
        <path id="DejaVuSans-36" d="M 2113 2584 
Q 1688 2584 1439 2293 
Q 1191 2003 1191 1497 
Q 1191 994 1439 701 
Q 1688 409 2113 409 
Q 2538 409 2786 701 
Q 3034 994 3034 1497 
Q 3034 2003 2786 2293 
Q 2538 2584 2113 2584 
z
M 3366 4563 
L 3366 3988 
Q 3128 4100 2886 4159 
Q 2644 4219 2406 4219 
Q 1781 4219 1451 3797 
Q 1122 3375 1075 2522 
Q 1259 2794 1537 2939 
Q 1816 3084 2150 3084 
Q 2853 3084 3261 2657 
Q 3669 2231 3669 1497 
Q 3669 778 3244 343 
Q 2819 -91 2113 -91 
Q 1303 -91 875 529 
Q 447 1150 447 2328 
Q 447 3434 972 4092 
Q 1497 4750 2381 4750 
Q 2619 4750 2861 4703 
Q 3103 4656 3366 4563 
z
" transform="scale(0.015625)"/>
       </defs>
       <use xlink:href="#DejaVuSans-31"/>
       <use xlink:href="#DejaVuSans-39" x="63.623047"/>
       <use xlink:href="#DejaVuSans-36" x="127.246094"/>
       <use xlink:href="#DejaVuSans-30" x="190.869141"/>
      </g>
     </g>
    </g>
    <g id="xtick_3">
     <g id="line2d_3">
      <g>
       <use xlink:href="#md0977d8669" x="309.695008" y="310.797344" style="stroke: #000000; stroke-width: 0.8"/>
      </g>
     </g>
     <g id="text_3">
      <!-- 1970 -->
      <g transform="translate(296.970008 325.395781) scale(0.1 -0.1)">
       <defs>
        <path id="DejaVuSans-37" d="M 525 4666 
L 3525 4666 
L 3525 4397 
L 1831 0 
L 1172 0 
L 2766 4134 
L 525 4134 
L 525 4666 
z
" transform="scale(0.015625)"/>
       </defs>
       <use xlink:href="#DejaVuSans-31"/>
       <use xlink:href="#DejaVuSans-39" x="63.623047"/>
       <use xlink:href="#DejaVuSans-37" x="127.246094"/>
       <use xlink:href="#DejaVuSans-30" x="190.869141"/>
      </g>
     </g>
    </g>
    <g id="xtick_4">
     <g id="line2d_4">
      <g>
       <use xlink:href="#md0977d8669" x="425.984934" y="310.797344" style="stroke: #000000; stroke-width: 0.8"/>
      </g>
     </g>
     <g id="text_4">
      <!-- 1980 -->
      <g transform="translate(413.259934 325.395781) scale(0.1 -0.1)">
       <defs>
        <path id="DejaVuSans-38" d="M 2034 2216 
Q 1584 2216 1326 1975 
Q 1069 1734 1069 1313 
Q 1069 891 1326 650 
Q 1584 409 2034 409 
Q 2484 409 2743 651 
Q 3003 894 3003 1313 
Q 3003 1734 2745 1975 
Q 2488 2216 2034 2216 
z
M 1403 2484 
Q 997 2584 770 2862 
Q 544 3141 544 3541 
Q 544 4100 942 4425 
Q 1341 4750 2034 4750 
Q 2731 4750 3128 4425 
Q 3525 4100 3525 3541 
Q 3525 3141 3298 2862 
Q 3072 2584 2669 2484 
Q 3125 2378 3379 2068 
Q 3634 1759 3634 1313 
Q 3634 634 3220 271 
Q 2806 -91 2034 -91 
Q 1263 -91 848 271 
Q 434 634 434 1313 
Q 434 1759 690 2068 
Q 947 2378 1403 2484 
z
M 1172 3481 
Q 1172 3119 1398 2916 
Q 1625 2713 2034 2713 
Q 2441 2713 2670 2916 
Q 2900 3119 2900 3481 
Q 2900 3844 2670 4047 
Q 2441 4250 2034 4250 
Q 1625 4250 1398 4047 
Q 1172 3844 1172 3481 
z
" transform="scale(0.015625)"/>
       </defs>
       <use xlink:href="#DejaVuSans-31"/>
       <use xlink:href="#DejaVuSans-39" x="63.623047"/>
       <use xlink:href="#DejaVuSans-38" x="127.246094"/>
       <use xlink:href="#DejaVuSans-30" x="190.869141"/>
      </g>
     </g>
    </g>
    <g id="xtick_5">
     <g id="line2d_5">
      <g>
       <use xlink:href="#md0977d8669" x="542.27486" y="310.797344" style="stroke: #000000; stroke-width: 0.8"/>
      </g>
     </g>
     <g id="text_5">
      <!-- 1990 -->
      <g transform="translate(529.54986 325.395781) scale(0.1 -0.1)">
       <use xlink:href="#DejaVuSans-31"/>
       <use xlink:href="#DejaVuSans-39" x="63.623047"/>
       <use xlink:href="#DejaVuSans-39" x="127.246094"/>
       <use xlink:href="#DejaVuSans-30" x="190.869141"/>
      </g>
     </g>
    </g>
    <g id="xtick_6">
     <g id="line2d_6">
      <g>
       <use xlink:href="#md0977d8669" x="658.564787" y="310.797344" style="stroke: #000000; stroke-width: 0.8"/>
      </g>
     </g>
     <g id="text_6">
      <!-- 2000 -->
      <g transform="translate(645.839787 325.395781) scale(0.1 -0.1)">
       <defs>
        <path id="DejaVuSans-32" d="M 1228 531 
L 3431 531 
L 3431 0 
L 469 0 
L 469 531 
Q 828 903 1448 1529 
Q 2069 2156 2228 2338 
Q 2531 2678 2651 2914 
Q 2772 3150 2772 3378 
Q 2772 3750 2511 3984 
Q 2250 4219 1831 4219 
Q 1534 4219 1204 4116 
Q 875 4013 500 3803 
L 500 4441 
Q 881 4594 1212 4672 
Q 1544 4750 1819 4750 
Q 2544 4750 2975 4387 
Q 3406 4025 3406 3419 
Q 3406 3131 3298 2873 
Q 3191 2616 2906 2266 
Q 2828 2175 2409 1742 
Q 1991 1309 1228 531 
z
" transform="scale(0.015625)"/>
       </defs>
       <use xlink:href="#DejaVuSans-32"/>
       <use xlink:href="#DejaVuSans-30" x="63.623047"/>
       <use xlink:href="#DejaVuSans-30" x="127.246094"/>
       <use xlink:href="#DejaVuSans-30" x="190.869141"/>
      </g>
     </g>
    </g>
    <g id="xtick_7">
     <g id="line2d_7">
      <g>
       <use xlink:href="#md0977d8669" x="774.854713" y="310.797344" style="stroke: #000000; stroke-width: 0.8"/>
      </g>
     </g>
     <g id="text_7">
      <!-- 2010 -->
      <g transform="translate(762.129713 325.395781) scale(0.1 -0.1)">
       <use xlink:href="#DejaVuSans-32"/>
       <use xlink:href="#DejaVuSans-30" x="63.623047"/>
       <use xlink:href="#DejaVuSans-31" x="127.246094"/>
       <use xlink:href="#DejaVuSans-30" x="190.869141"/>
      </g>
     </g>
    </g>
    <g id="xtick_8">
     <g id="line2d_8">
      <g>
       <use xlink:href="#md0977d8669" x="891.144639" y="310.797344" style="stroke: #000000; stroke-width: 0.8"/>
      </g>
     </g>
     <g id="text_8">
      <!-- 2020 -->
      <g transform="translate(878.419639 325.395781) scale(0.1 -0.1)">
       <use xlink:href="#DejaVuSans-32"/>
       <use xlink:href="#DejaVuSans-30" x="63.623047"/>
       <use xlink:href="#DejaVuSans-32" x="127.246094"/>
       <use xlink:href="#DejaVuSans-30" x="190.869141"/>
      </g>
     </g>
    </g>
    <g id="text_9">
     <!-- Year -->
     <g transform="translate(506.311875 340.593594) scale(0.12 -0.12)">
      <defs>
       <path id="DejaVuSans-59" d="M -13 4666 
L 666 4666 
L 1959 2747 
L 3244 4666 
L 3922 4666 
L 2272 2222 
L 2272 0 
L 1638 0 
L 1638 2222 
L -13 4666 
z
" transform="scale(0.015625)"/>
       <path id="DejaVuSans-65" d="M 3597 1894 
L 3597 1613 
L 953 1613 
Q 991 1019 1311 708 
Q 1631 397 2203 397 
Q 2534 397 2845 478 
Q 3156 559 3463 722 
L 3463 178 
Q 3153 47 2828 -22 
Q 2503 -91 2169 -91 
Q 1331 -91 842 396 
Q 353 884 353 1716 
Q 353 2575 817 3079 
Q 1281 3584 2069 3584 
Q 2775 3584 3186 3129 
Q 3597 2675 3597 1894 
z
M 3022 2063 
Q 3016 2534 2758 2815 
Q 2500 3097 2075 3097 
Q 1594 3097 1305 2825 
Q 1016 2553 972 2059 
L 3022 2063 
z
" transform="scale(0.015625)"/>
       <path id="DejaVuSans-61" d="M 2194 1759 
Q 1497 1759 1228 1600 
Q 959 1441 959 1056 
Q 959 750 1161 570 
Q 1363 391 1709 391 
Q 2188 391 2477 730 
Q 2766 1069 2766 1631 
L 2766 1759 
L 2194 1759 
z
M 3341 1997 
L 3341 0 
L 2766 0 
L 2766 531 
Q 2569 213 2275 61 
Q 1981 -91 1556 -91 
Q 1019 -91 701 211 
Q 384 513 384 1019 
Q 384 1609 779 1909 
Q 1175 2209 1959 2209 
L 2766 2209 
L 2766 2266 
Q 2766 2663 2505 2880 
Q 2244 3097 1772 3097 
Q 1472 3097 1187 3025 
Q 903 2953 641 2809 
L 641 3341 
Q 956 3463 1253 3523 
Q 1550 3584 1831 3584 
Q 2591 3584 2966 3190 
Q 3341 2797 3341 1997 
z
" transform="scale(0.015625)"/>
       <path id="DejaVuSans-72" d="M 2631 2963 
Q 2534 3019 2420 3045 
Q 2306 3072 2169 3072 
Q 1681 3072 1420 2755 
Q 1159 2438 1159 1844 
L 1159 0 
L 581 0 
L 581 3500 
L 1159 3500 
L 1159 2956 
Q 1341 3275 1631 3429 
Q 1922 3584 2338 3584 
Q 2397 3584 2469 3576 
Q 2541 3569 2628 3553 
L 2631 2963 
z
" transform="scale(0.015625)"/>
      </defs>
      <use xlink:href="#DejaVuSans-59"/>
      <use xlink:href="#DejaVuSans-65" x="47.833984"/>
      <use xlink:href="#DejaVuSans-61" x="109.357422"/>
      <use xlink:href="#DejaVuSans-72" x="170.636719"/>
     </g>
    </g>
   </g>
   <g id="matplotlib.axis_2">
    <g id="ytick_1">
     <g id="line2d_9">
      <path d="M 45.716875 305.318159 
L 992.316875 305.318159 
" clip-path="url(#pb1f982935d)" style="fill: none; stroke: #b0b0b0; stroke-opacity: 0.3; stroke-width: 0.8; stroke-linecap: square"/>
     </g>
     <g id="line2d_10">
      <defs>
       <path id="m56e3b9c21b" d="M 0 0 
L -3.5 0 
" style="stroke: #000000; stroke-width: 0.8"/>
      </defs>
      <g>
       <use xlink:href="#m56e3b9c21b" x="45.716875" y="305.318159" style="stroke: #000000; stroke-width: 0.8"/>
      </g>
     </g>
     <g id="text_10">
      <!-- 0.0 -->
      <g transform="translate(22.81375 309.117378) scale(0.1 -0.1)">
       <defs>
        <path id="DejaVuSans-2e" d="M 684 794 
L 1344 794 
L 1344 0 
L 684 0 
L 684 794 
z
" transform="scale(0.015625)"/>
       </defs>
       <use xlink:href="#DejaVuSans-30"/>
       <use xlink:href="#DejaVuSans-2e" x="63.623047"/>
       <use xlink:href="#DejaVuSans-30" x="95.410156"/>
      </g>
     </g>
    </g>
    <g id="ytick_2">
     <g id="line2d_11">
      <path d="M 45.716875 273.162045 
L 992.316875 273.162045 
" clip-path="url(#pb1f982935d)" style="fill: none; stroke: #b0b0b0; stroke-opacity: 0.3; stroke-width: 0.8; stroke-linecap: square"/>
     </g>
     <g id="line2d_12">
      <g>
       <use xlink:href="#m56e3b9c21b" x="45.716875" y="273.162045" style="stroke: #000000; stroke-width: 0.8"/>
      </g>
     </g>
     <g id="text_11">
      <!-- 0.5 -->
      <g transform="translate(22.81375 276.961264) scale(0.1 -0.1)">
       <use xlink:href="#DejaVuSans-30"/>
       <use xlink:href="#DejaVuSans-2e" x="63.623047"/>
       <use xlink:href="#DejaVuSans-35" x="95.410156"/>
      </g>
     </g>
    </g>
    <g id="ytick_3">
     <g id="line2d_13">
      <path d="M 45.716875 241.005931 
L 992.316875 241.005931 
" clip-path="url(#pb1f982935d)" style="fill: none; stroke: #b0b0b0; stroke-opacity: 0.3; stroke-width: 0.8; stroke-linecap: square"/>
     </g>
     <g id="line2d_14">
      <g>
       <use xlink:href="#m56e3b9c21b" x="45.716875" y="241.005931" style="stroke: #000000; stroke-width: 0.8"/>
      </g>
     </g>
     <g id="text_12">
      <!-- 1.0 -->
      <g transform="translate(22.81375 244.80515) scale(0.1 -0.1)">
       <use xlink:href="#DejaVuSans-31"/>
       <use xlink:href="#DejaVuSans-2e" x="63.623047"/>
       <use xlink:href="#DejaVuSans-30" x="95.410156"/>
      </g>
     </g>
    </g>
    <g id="ytick_4">
     <g id="line2d_15">
      <path d="M 45.716875 208.849817 
L 992.316875 208.849817 
" clip-path="url(#pb1f982935d)" style="fill: none; stroke: #b0b0b0; stroke-opacity: 0.3; stroke-width: 0.8; stroke-linecap: square"/>
     </g>
     <g id="line2d_16">
      <g>
       <use xlink:href="#m56e3b9c21b" x="45.716875" y="208.849817" style="stroke: #000000; stroke-width: 0.8"/>
      </g>
     </g>
     <g id="text_13">
      <!-- 1.5 -->
      <g transform="translate(22.81375 212.649036) scale(0.1 -0.1)">
       <use xlink:href="#DejaVuSans-31"/>
       <use xlink:href="#DejaVuSans-2e" x="63.623047"/>
       <use xlink:href="#DejaVuSans-35" x="95.410156"/>
      </g>
     </g>
    </g>
    <g id="ytick_5">
     <g id="line2d_17">
      <path d="M 45.716875 176.693704 
L 992.316875 176.693704 
" clip-path="url(#pb1f982935d)" style="fill: none; stroke: #b0b0b0; stroke-opacity: 0.3; stroke-width: 0.8; stroke-linecap: square"/>
     </g>
     <g id="line2d_18">
      <g>
       <use xlink:href="#m56e3b9c21b" x="45.716875" y="176.693704" style="stroke: #000000; stroke-width: 0.8"/>
      </g>
     </g>
     <g id="text_14">
      <!-- 2.0 -->
      <g transform="translate(22.81375 180.492922) scale(0.1 -0.1)">
       <use xlink:href="#DejaVuSans-32"/>
       <use xlink:href="#DejaVuSans-2e" x="63.623047"/>
       <use xlink:href="#DejaVuSans-30" x="95.410156"/>
      </g>
     </g>
    </g>
    <g id="ytick_6">
     <g id="line2d_19">
      <path d="M 45.716875 144.53759 
L 992.316875 144.53759 
" clip-path="url(#pb1f982935d)" style="fill: none; stroke: #b0b0b0; stroke-opacity: 0.3; stroke-width: 0.8; stroke-linecap: square"/>
     </g>
     <g id="line2d_20">
      <g>
       <use xlink:href="#m56e3b9c21b" x="45.716875" y="144.53759" style="stroke: #000000; stroke-width: 0.8"/>
      </g>
     </g>
     <g id="text_15">
      <!-- 2.5 -->
      <g transform="translate(22.81375 148.336809) scale(0.1 -0.1)">
       <use xlink:href="#DejaVuSans-32"/>
       <use xlink:href="#DejaVuSans-2e" x="63.623047"/>
       <use xlink:href="#DejaVuSans-35" x="95.410156"/>
      </g>
     </g>
    </g>
    <g id="ytick_7">
     <g id="line2d_21">
      <path d="M 45.716875 112.381476 
L 992.316875 112.381476 
" clip-path="url(#pb1f982935d)" style="fill: none; stroke: #b0b0b0; stroke-opacity: 0.3; stroke-width: 0.8; stroke-linecap: square"/>
     </g>
     <g id="line2d_22">
      <g>
       <use xlink:href="#m56e3b9c21b" x="45.716875" y="112.381476" style="stroke: #000000; stroke-width: 0.8"/>
      </g>
     </g>
     <g id="text_16">
      <!-- 3.0 -->
      <g transform="translate(22.81375 116.180695) scale(0.1 -0.1)">
       <defs>
        <path id="DejaVuSans-33" d="M 2597 2516 
Q 3050 2419 3304 2112 
Q 3559 1806 3559 1356 
Q 3559 666 3084 287 
Q 2609 -91 1734 -91 
Q 1441 -91 1130 -33 
Q 819 25 488 141 
L 488 750 
Q 750 597 1062 519 
Q 1375 441 1716 441 
Q 2309 441 2620 675 
Q 2931 909 2931 1356 
Q 2931 1769 2642 2001 
Q 2353 2234 1838 2234 
L 1294 2234 
L 1294 2753 
L 1863 2753 
Q 2328 2753 2575 2939 
Q 2822 3125 2822 3475 
Q 2822 3834 2567 4026 
Q 2313 4219 1838 4219 
Q 1578 4219 1281 4162 
Q 984 4106 628 3988 
L 628 4550 
Q 988 4650 1302 4700 
Q 1616 4750 1894 4750 
Q 2613 4750 3031 4423 
Q 3450 4097 3450 3541 
Q 3450 3153 3228 2886 
Q 3006 2619 2597 2516 
z
" transform="scale(0.015625)"/>
       </defs>
       <use xlink:href="#DejaVuSans-33"/>
       <use xlink:href="#DejaVuSans-2e" x="63.623047"/>
       <use xlink:href="#DejaVuSans-30" x="95.410156"/>
      </g>
     </g>
    </g>
    <g id="ytick_8">
     <g id="line2d_23">
      <path d="M 45.716875 80.225362 
L 992.316875 80.225362 
" clip-path="url(#pb1f982935d)" style="fill: none; stroke: #b0b0b0; stroke-opacity: 0.3; stroke-width: 0.8; stroke-linecap: square"/>
     </g>
     <g id="line2d_24">
      <g>
       <use xlink:href="#m56e3b9c21b" x="45.716875" y="80.225362" style="stroke: #000000; stroke-width: 0.8"/>
      </g>
     </g>
     <g id="text_17">
      <!-- 3.5 -->
      <g transform="translate(22.81375 84.024581) scale(0.1 -0.1)">
       <use xlink:href="#DejaVuSans-33"/>
       <use xlink:href="#DejaVuSans-2e" x="63.623047"/>
       <use xlink:href="#DejaVuSans-35" x="95.410156"/>
      </g>
     </g>
    </g>
    <g id="ytick_9">
     <g id="line2d_25">
      <path d="M 45.716875 48.069248 
L 992.316875 48.069248 
" clip-path="url(#pb1f982935d)" style="fill: none; stroke: #b0b0b0; stroke-opacity: 0.3; stroke-width: 0.8; stroke-linecap: square"/>
     </g>
     <g id="line2d_26">
      <g>
       <use xlink:href="#m56e3b9c21b" x="45.716875" y="48.069248" style="stroke: #000000; stroke-width: 0.8"/>
      </g>
     </g>
     <g id="text_18">
      <!-- 4.0 -->
      <g transform="translate(22.81375 51.868467) scale(0.1 -0.1)">
       <defs>
        <path id="DejaVuSans-34" d="M 2419 4116 
L 825 1625 
L 2419 1625 
L 2419 4116 
z
M 2253 4666 
L 3047 4666 
L 3047 1625 
L 3713 1625 
L 3713 1100 
L 3047 1100 
L 3047 0 
L 2419 0 
L 2419 1100 
L 313 1100 
L 313 1709 
L 2253 4666 
z
" transform="scale(0.015625)"/>
       </defs>
       <use xlink:href="#DejaVuSans-34"/>
       <use xlink:href="#DejaVuSans-2e" x="63.623047"/>
       <use xlink:href="#DejaVuSans-30" x="95.410156"/>
      </g>
     </g>
    </g>
    <g id="text_19">
     <!-- % of all tokens -->
     <g transform="translate(16.318125 212.573281) rotate(-90) scale(0.12 -0.12)">
      <defs>
       <path id="DejaVuSans-25" d="M 4653 2053 
Q 4381 2053 4226 1822 
Q 4072 1591 4072 1178 
Q 4072 772 4226 539 
Q 4381 306 4653 306 
Q 4919 306 5073 539 
Q 5228 772 5228 1178 
Q 5228 1588 5073 1820 
Q 4919 2053 4653 2053 
z
M 4653 2450 
Q 5147 2450 5437 2106 
Q 5728 1763 5728 1178 
Q 5728 594 5436 251 
Q 5144 -91 4653 -91 
Q 4153 -91 3862 251 
Q 3572 594 3572 1178 
Q 3572 1766 3864 2108 
Q 4156 2450 4653 2450 
z
M 1428 4353 
Q 1159 4353 1004 4120 
Q 850 3888 850 3481 
Q 850 3069 1003 2837 
Q 1156 2606 1428 2606 
Q 1700 2606 1854 2837 
Q 2009 3069 2009 3481 
Q 2009 3884 1853 4118 
Q 1697 4353 1428 4353 
z
M 4250 4750 
L 4750 4750 
L 1831 -91 
L 1331 -91 
L 4250 4750 
z
M 1428 4750 
Q 1922 4750 2215 4408 
Q 2509 4066 2509 3481 
Q 2509 2891 2217 2550 
Q 1925 2209 1428 2209 
Q 931 2209 642 2551 
Q 353 2894 353 3481 
Q 353 4063 643 4406 
Q 934 4750 1428 4750 
z
" transform="scale(0.015625)"/>
       <path id="DejaVuSans-20" transform="scale(0.015625)"/>
       <path id="DejaVuSans-6f" d="M 1959 3097 
Q 1497 3097 1228 2736 
Q 959 2375 959 1747 
Q 959 1119 1226 758 
Q 1494 397 1959 397 
Q 2419 397 2687 759 
Q 2956 1122 2956 1747 
Q 2956 2369 2687 2733 
Q 2419 3097 1959 3097 
z
M 1959 3584 
Q 2709 3584 3137 3096 
Q 3566 2609 3566 1747 
Q 3566 888 3137 398 
Q 2709 -91 1959 -91 
Q 1206 -91 779 398 
Q 353 888 353 1747 
Q 353 2609 779 3096 
Q 1206 3584 1959 3584 
z
" transform="scale(0.015625)"/>
       <path id="DejaVuSans-66" d="M 2375 4863 
L 2375 4384 
L 1825 4384 
Q 1516 4384 1395 4259 
Q 1275 4134 1275 3809 
L 1275 3500 
L 2222 3500 
L 2222 3053 
L 1275 3053 
L 1275 0 
L 697 0 
L 697 3053 
L 147 3053 
L 147 3500 
L 697 3500 
L 697 3744 
Q 697 4328 969 4595 
Q 1241 4863 1831 4863 
L 2375 4863 
z
" transform="scale(0.015625)"/>
       <path id="DejaVuSans-6c" d="M 603 4863 
L 1178 4863 
L 1178 0 
L 603 0 
L 603 4863 
z
" transform="scale(0.015625)"/>
       <path id="DejaVuSans-74" d="M 1172 4494 
L 1172 3500 
L 2356 3500 
L 2356 3053 
L 1172 3053 
L 1172 1153 
Q 1172 725 1289 603 
Q 1406 481 1766 481 
L 2356 481 
L 2356 0 
L 1766 0 
Q 1100 0 847 248 
Q 594 497 594 1153 
L 594 3053 
L 172 3053 
L 172 3500 
L 594 3500 
L 594 4494 
L 1172 4494 
z
" transform="scale(0.015625)"/>
       <path id="DejaVuSans-6b" d="M 581 4863 
L 1159 4863 
L 1159 1991 
L 2875 3500 
L 3609 3500 
L 1753 1863 
L 3688 0 
L 2938 0 
L 1159 1709 
L 1159 0 
L 581 0 
L 581 4863 
z
" transform="scale(0.015625)"/>
       <path id="DejaVuSans-6e" d="M 3513 2113 
L 3513 0 
L 2938 0 
L 2938 2094 
Q 2938 2591 2744 2837 
Q 2550 3084 2163 3084 
Q 1697 3084 1428 2787 
Q 1159 2491 1159 1978 
L 1159 0 
L 581 0 
L 581 3500 
L 1159 3500 
L 1159 2956 
Q 1366 3272 1645 3428 
Q 1925 3584 2291 3584 
Q 2894 3584 3203 3211 
Q 3513 2838 3513 2113 
z
" transform="scale(0.015625)"/>
       <path id="DejaVuSans-73" d="M 2834 3397 
L 2834 2853 
Q 2591 2978 2328 3040 
Q 2066 3103 1784 3103 
Q 1356 3103 1142 2972 
Q 928 2841 928 2578 
Q 928 2378 1081 2264 
Q 1234 2150 1697 2047 
L 1894 2003 
Q 2506 1872 2764 1633 
Q 3022 1394 3022 966 
Q 3022 478 2636 193 
Q 2250 -91 1575 -91 
Q 1294 -91 989 -36 
Q 684 19 347 128 
L 347 722 
Q 666 556 975 473 
Q 1284 391 1588 391 
Q 1994 391 2212 530 
Q 2431 669 2431 922 
Q 2431 1156 2273 1281 
Q 2116 1406 1581 1522 
L 1381 1569 
Q 847 1681 609 1914 
Q 372 2147 372 2553 
Q 372 3047 722 3315 
Q 1072 3584 1716 3584 
Q 2034 3584 2315 3537 
Q 2597 3491 2834 3397 
z
" transform="scale(0.015625)"/>
      </defs>
      <use xlink:href="#DejaVuSans-25"/>
      <use xlink:href="#DejaVuSans-20" x="95.019531"/>
      <use xlink:href="#DejaVuSans-6f" x="126.806641"/>
      <use xlink:href="#DejaVuSans-66" x="187.988281"/>
      <use xlink:href="#DejaVuSans-20" x="223.193359"/>
      <use xlink:href="#DejaVuSans-61" x="254.980469"/>
      <use xlink:href="#DejaVuSans-6c" x="316.259766"/>
      <use xlink:href="#DejaVuSans-6c" x="344.042969"/>
      <use xlink:href="#DejaVuSans-20" x="371.826172"/>
      <use xlink:href="#DejaVuSans-74" x="403.613281"/>
      <use xlink:href="#DejaVuSans-6f" x="442.822266"/>
      <use xlink:href="#DejaVuSans-6b" x="504.003906"/>
      <use xlink:href="#DejaVuSans-65" x="558.289062"/>
      <use xlink:href="#DejaVuSans-6e" x="619.8125"/>
      <use xlink:href="#DejaVuSans-73" x="683.191406"/>
     </g>
    </g>
   </g>
   <g id="PathCollection_1">
    <defs>
     <path id="m638f0c4fbe" d="M 0 2.12132 
C 0.562581 2.12132 1.102195 1.897805 1.5 1.5 
C 1.897805 1.102195 2.12132 0.562581 2.12132 0 
C 2.12132 -0.562581 1.897805 -1.102195 1.5 -1.5 
C 1.102195 -1.897805 0.562581 -2.12132 0 -2.12132 
C -0.562581 -2.12132 -1.102195 -1.897805 -1.5 -1.5 
C -1.897805 -1.102195 -2.12132 -0.562581 -2.12132 0 
C -2.12132 0.562581 -1.897805 1.102195 -1.5 1.5 
C -1.102195 1.897805 -0.562581 2.12132 0 2.12132 
z
" style="stroke: #c06c84; stroke-opacity: 0.35"/>
    </defs>
    <g clip-path="url(#pb1f982935d)">
     <use xlink:href="#m638f0c4fbe" x="88.744148" y="293.646248" style="fill: #c06c84; fill-opacity: 0.35; stroke: #c06c84; stroke-opacity: 0.35"/>
     <use xlink:href="#m638f0c4fbe" x="100.37314" y="276.413787" style="fill: #c06c84; fill-opacity: 0.35; stroke: #c06c84; stroke-opacity: 0.35"/>
     <use xlink:href="#m638f0c4fbe" x="112.002133" y="232.108092" style="fill: #c06c84; fill-opacity: 0.35; stroke: #c06c84; stroke-opacity: 0.35"/>
     <use xlink:href="#m638f0c4fbe" x="123.631126" y="264.455062" style="fill: #c06c84; fill-opacity: 0.35; stroke: #c06c84; stroke-opacity: 0.35"/>
     <use xlink:href="#m638f0c4fbe" x="135.260118" y="219.441297" style="fill: #c06c84; fill-opacity: 0.35; stroke: #c06c84; stroke-opacity: 0.35"/>
     <use xlink:href="#m638f0c4fbe" x="146.889111" y="236.288934" style="fill: #c06c84; fill-opacity: 0.35; stroke: #c06c84; stroke-opacity: 0.35"/>
     <use xlink:href="#m638f0c4fbe" x="158.518104" y="269.500705" style="fill: #c06c84; fill-opacity: 0.35; stroke: #c06c84; stroke-opacity: 0.35"/>
     <use xlink:href="#m638f0c4fbe" x="170.147096" y="216.407245" style="fill: #c06c84; fill-opacity: 0.35; stroke: #c06c84; stroke-opacity: 0.35"/>
     <use xlink:href="#m638f0c4fbe" x="181.776089" y="248.151734" style="fill: #c06c84; fill-opacity: 0.35; stroke: #c06c84; stroke-opacity: 0.35"/>
     <use xlink:href="#m638f0c4fbe" x="193.405081" y="39.057344" style="fill: #c06c84; fill-opacity: 0.35; stroke: #c06c84; stroke-opacity: 0.35"/>
     <use xlink:href="#m638f0c4fbe" x="205.034074" y="40.503104" style="fill: #c06c84; fill-opacity: 0.35; stroke: #c06c84; stroke-opacity: 0.35"/>
     <use xlink:href="#m638f0c4fbe" x="216.663067" y="233.460921" style="fill: #c06c84; fill-opacity: 0.35; stroke: #c06c84; stroke-opacity: 0.35"/>
     <use xlink:href="#m638f0c4fbe" x="228.292059" y="206.679773" style="fill: #c06c84; fill-opacity: 0.35; stroke: #c06c84; stroke-opacity: 0.35"/>
     <use xlink:href="#m638f0c4fbe" x="239.921052" y="241.732623" style="fill: #c06c84; fill-opacity: 0.35; stroke: #c06c84; stroke-opacity: 0.35"/>
     <use xlink:href="#m638f0c4fbe" x="251.550045" y="264.484999" style="fill: #c06c84; fill-opacity: 0.35; stroke: #c06c84; stroke-opacity: 0.35"/>
     <use xlink:href="#m638f0c4fbe" x="263.179037" y="256.337026" style="fill: #c06c84; fill-opacity: 0.35; stroke: #c06c84; stroke-opacity: 0.35"/>
     <use xlink:href="#m638f0c4fbe" x="274.80803" y="199.755159" style="fill: #c06c84; fill-opacity: 0.35; stroke: #c06c84; stroke-opacity: 0.35"/>
     <use xlink:href="#m638f0c4fbe" x="286.437022" y="257.807447" style="fill: #c06c84; fill-opacity: 0.35; stroke: #c06c84; stroke-opacity: 0.35"/>
     <use xlink:href="#m638f0c4fbe" x="298.066015" y="202.349949" style="fill: #c06c84; fill-opacity: 0.35; stroke: #c06c84; stroke-opacity: 0.35"/>
     <use xlink:href="#m638f0c4fbe" x="309.695008" y="199.614671" style="fill: #c06c84; fill-opacity: 0.35; stroke: #c06c84; stroke-opacity: 0.35"/>
     <use xlink:href="#m638f0c4fbe" x="321.324" y="226.568492" style="fill: #c06c84; fill-opacity: 0.35; stroke: #c06c84; stroke-opacity: 0.35"/>
     <use xlink:href="#m638f0c4fbe" x="332.952993" y="239.016893" style="fill: #c06c84; fill-opacity: 0.35; stroke: #c06c84; stroke-opacity: 0.35"/>
     <use xlink:href="#m638f0c4fbe" x="344.581986" y="170.161113" style="fill: #c06c84; fill-opacity: 0.35; stroke: #c06c84; stroke-opacity: 0.35"/>
     <use xlink:href="#m638f0c4fbe" x="356.210978" y="215.788376" style="fill: #c06c84; fill-opacity: 0.35; stroke: #c06c84; stroke-opacity: 0.35"/>
     <use xlink:href="#m638f0c4fbe" x="367.839971" y="229.298977" style="fill: #c06c84; fill-opacity: 0.35; stroke: #c06c84; stroke-opacity: 0.35"/>
     <use xlink:href="#m638f0c4fbe" x="379.468963" y="284.057918" style="fill: #c06c84; fill-opacity: 0.35; stroke: #c06c84; stroke-opacity: 0.35"/>
     <use xlink:href="#m638f0c4fbe" x="391.097956" y="275.884645" style="fill: #c06c84; fill-opacity: 0.35; stroke: #c06c84; stroke-opacity: 0.35"/>
     <use xlink:href="#m638f0c4fbe" x="402.726949" y="235.12746" style="fill: #c06c84; fill-opacity: 0.35; stroke: #c06c84; stroke-opacity: 0.35"/>
     <use xlink:href="#m638f0c4fbe" x="414.355941" y="131.794442" style="fill: #c06c84; fill-opacity: 0.35; stroke: #c06c84; stroke-opacity: 0.35"/>
     <use xlink:href="#m638f0c4fbe" x="425.984934" y="270.586083" style="fill: #c06c84; fill-opacity: 0.35; stroke: #c06c84; stroke-opacity: 0.35"/>
     <use xlink:href="#m638f0c4fbe" x="437.613927" y="234.316862" style="fill: #c06c84; fill-opacity: 0.35; stroke: #c06c84; stroke-opacity: 0.35"/>
     <use xlink:href="#m638f0c4fbe" x="449.242919" y="201.201228" style="fill: #c06c84; fill-opacity: 0.35; stroke: #c06c84; stroke-opacity: 0.35"/>
     <use xlink:href="#m638f0c4fbe" x="460.871912" y="294.961923" style="fill: #c06c84; fill-opacity: 0.35; stroke: #c06c84; stroke-opacity: 0.35"/>
     <use xlink:href="#m638f0c4fbe" x="472.500904" y="250.893143" style="fill: #c06c84; fill-opacity: 0.35; stroke: #c06c84; stroke-opacity: 0.35"/>
     <use xlink:href="#m638f0c4fbe" x="484.129897" y="157.473957" style="fill: #c06c84; fill-opacity: 0.35; stroke: #c06c84; stroke-opacity: 0.35"/>
     <use xlink:href="#m638f0c4fbe" x="495.75889" y="282.59299" style="fill: #c06c84; fill-opacity: 0.35; stroke: #c06c84; stroke-opacity: 0.35"/>
     <use xlink:href="#m638f0c4fbe" x="507.387882" y="265.619253" style="fill: #c06c84; fill-opacity: 0.35; stroke: #c06c84; stroke-opacity: 0.35"/>
     <use xlink:href="#m638f0c4fbe" x="519.016875" y="284.836558" style="fill: #c06c84; fill-opacity: 0.35; stroke: #c06c84; stroke-opacity: 0.35"/>
     <use xlink:href="#m638f0c4fbe" x="530.645868" y="282.961649" style="fill: #c06c84; fill-opacity: 0.35; stroke: #c06c84; stroke-opacity: 0.35"/>
     <use xlink:href="#m638f0c4fbe" x="542.27486" y="266.723805" style="fill: #c06c84; fill-opacity: 0.35; stroke: #c06c84; stroke-opacity: 0.35"/>
     <use xlink:href="#m638f0c4fbe" x="553.903853" y="282.948689" style="fill: #c06c84; fill-opacity: 0.35; stroke: #c06c84; stroke-opacity: 0.35"/>
     <use xlink:href="#m638f0c4fbe" x="565.532846" y="278.586371" style="fill: #c06c84; fill-opacity: 0.35; stroke: #c06c84; stroke-opacity: 0.35"/>
     <use xlink:href="#m638f0c4fbe" x="577.161838" y="268.199433" style="fill: #c06c84; fill-opacity: 0.35; stroke: #c06c84; stroke-opacity: 0.35"/>
     <use xlink:href="#m638f0c4fbe" x="588.790831" y="241.948354" style="fill: #c06c84; fill-opacity: 0.35; stroke: #c06c84; stroke-opacity: 0.35"/>
     <use xlink:href="#m638f0c4fbe" x="600.419823" y="253.705136" style="fill: #c06c84; fill-opacity: 0.35; stroke: #c06c84; stroke-opacity: 0.35"/>
     <use xlink:href="#m638f0c4fbe" x="612.048816" y="231.506038" style="fill: #c06c84; fill-opacity: 0.35; stroke: #c06c84; stroke-opacity: 0.35"/>
     <use xlink:href="#m638f0c4fbe" x="623.677809" y="238.60423" style="fill: #c06c84; fill-opacity: 0.35; stroke: #c06c84; stroke-opacity: 0.35"/>
     <use xlink:href="#m638f0c4fbe" x="635.306801" y="254.315881" style="fill: #c06c84; fill-opacity: 0.35; stroke: #c06c84; stroke-opacity: 0.35"/>
     <use xlink:href="#m638f0c4fbe" x="646.935794" y="267.134478" style="fill: #c06c84; fill-opacity: 0.35; stroke: #c06c84; stroke-opacity: 0.35"/>
     <use xlink:href="#m638f0c4fbe" x="658.564787" y="252.751332" style="fill: #c06c84; fill-opacity: 0.35; stroke: #c06c84; stroke-opacity: 0.35"/>
     <use xlink:href="#m638f0c4fbe" x="670.193779" y="250.677354" style="fill: #c06c84; fill-opacity: 0.35; stroke: #c06c84; stroke-opacity: 0.35"/>
     <use xlink:href="#m638f0c4fbe" x="681.822772" y="245.861554" style="fill: #c06c84; fill-opacity: 0.35; stroke: #c06c84; stroke-opacity: 0.35"/>
     <use xlink:href="#m638f0c4fbe" x="693.451764" y="232.989506" style="fill: #c06c84; fill-opacity: 0.35; stroke: #c06c84; stroke-opacity: 0.35"/>
     <use xlink:href="#m638f0c4fbe" x="705.080757" y="259.438685" style="fill: #c06c84; fill-opacity: 0.35; stroke: #c06c84; stroke-opacity: 0.35"/>
     <use xlink:href="#m638f0c4fbe" x="716.70975" y="230.41207" style="fill: #c06c84; fill-opacity: 0.35; stroke: #c06c84; stroke-opacity: 0.35"/>
     <use xlink:href="#m638f0c4fbe" x="728.338742" y="266.416069" style="fill: #c06c84; fill-opacity: 0.35; stroke: #c06c84; stroke-opacity: 0.35"/>
     <use xlink:href="#m638f0c4fbe" x="739.967735" y="243.164363" style="fill: #c06c84; fill-opacity: 0.35; stroke: #c06c84; stroke-opacity: 0.35"/>
     <use xlink:href="#m638f0c4fbe" x="751.596728" y="269.39646" style="fill: #c06c84; fill-opacity: 0.35; stroke: #c06c84; stroke-opacity: 0.35"/>
     <use xlink:href="#m638f0c4fbe" x="763.22572" y="269.45922" style="fill: #c06c84; fill-opacity: 0.35; stroke: #c06c84; stroke-opacity: 0.35"/>
     <use xlink:href="#m638f0c4fbe" x="774.854713" y="173.056508" style="fill: #c06c84; fill-opacity: 0.35; stroke: #c06c84; stroke-opacity: 0.35"/>
     <use xlink:href="#m638f0c4fbe" x="786.483705" y="265.206583" style="fill: #c06c84; fill-opacity: 0.35; stroke: #c06c84; stroke-opacity: 0.35"/>
     <use xlink:href="#m638f0c4fbe" x="798.112698" y="248.436144" style="fill: #c06c84; fill-opacity: 0.35; stroke: #c06c84; stroke-opacity: 0.35"/>
     <use xlink:href="#m638f0c4fbe" x="809.741691" y="293.800926" style="fill: #c06c84; fill-opacity: 0.35; stroke: #c06c84; stroke-opacity: 0.35"/>
     <use xlink:href="#m638f0c4fbe" x="821.370683" y="297.857344" style="fill: #c06c84; fill-opacity: 0.35; stroke: #c06c84; stroke-opacity: 0.35"/>
     <use xlink:href="#m638f0c4fbe" x="832.999676" y="226.617375" style="fill: #c06c84; fill-opacity: 0.35; stroke: #c06c84; stroke-opacity: 0.35"/>
     <use xlink:href="#m638f0c4fbe" x="844.628669" y="264.362629" style="fill: #c06c84; fill-opacity: 0.35; stroke: #c06c84; stroke-opacity: 0.35"/>
     <use xlink:href="#m638f0c4fbe" x="856.257661" y="231.186313" style="fill: #c06c84; fill-opacity: 0.35; stroke: #c06c84; stroke-opacity: 0.35"/>
     <use xlink:href="#m638f0c4fbe" x="867.886654" y="268.930268" style="fill: #c06c84; fill-opacity: 0.35; stroke: #c06c84; stroke-opacity: 0.35"/>
     <use xlink:href="#m638f0c4fbe" x="879.515646" y="246.332514" style="fill: #c06c84; fill-opacity: 0.35; stroke: #c06c84; stroke-opacity: 0.35"/>
     <use xlink:href="#m638f0c4fbe" x="891.144639" y="283.203122" style="fill: #c06c84; fill-opacity: 0.35; stroke: #c06c84; stroke-opacity: 0.35"/>
     <use xlink:href="#m638f0c4fbe" x="902.773632" y="282.284262" style="fill: #c06c84; fill-opacity: 0.35; stroke: #c06c84; stroke-opacity: 0.35"/>
     <use xlink:href="#m638f0c4fbe" x="914.402624" y="247.736973" style="fill: #c06c84; fill-opacity: 0.35; stroke: #c06c84; stroke-opacity: 0.35"/>
     <use xlink:href="#m638f0c4fbe" x="926.031617" y="272.930706" style="fill: #c06c84; fill-opacity: 0.35; stroke: #c06c84; stroke-opacity: 0.35"/>
     <use xlink:href="#m638f0c4fbe" x="937.66061" y="282.290763" style="fill: #c06c84; fill-opacity: 0.35; stroke: #c06c84; stroke-opacity: 0.35"/>
     <use xlink:href="#m638f0c4fbe" x="949.289602" y="261.511373" style="fill: #c06c84; fill-opacity: 0.35; stroke: #c06c84; stroke-opacity: 0.35"/>
    </g>
   </g>
   <g id="patch_3">
    <path d="M 45.716875 310.797344 
L 45.716875 26.117344 
" style="fill: none; stroke: #000000; stroke-width: 0.8; stroke-linejoin: miter; stroke-linecap: square"/>
   </g>
   <g id="patch_4">
    <path d="M 992.316875 310.797344 
L 992.316875 26.117344 
" style="fill: none; stroke: #000000; stroke-width: 0.8; stroke-linejoin: miter; stroke-linecap: square"/>
   </g>
   <g id="patch_5">
    <path d="M 45.716875 310.797344 
L 992.316875 310.797344 
" style="fill: none; stroke: #000000; stroke-width: 0.8; stroke-linejoin: miter; stroke-linecap: square"/>
   </g>
   <g id="patch_6">
    <path d="M 45.716875 26.117344 
L 992.316875 26.117344 
" style="fill: none; stroke: #000000; stroke-width: 0.8; stroke-linejoin: miter; stroke-linecap: square"/>
   </g>
   <g id="line2d_27">
    <path d="M 88.744148 267.389376 
L 100.37314 266.655798 
L 112.002133 257.212897 
L 123.631126 245.741435 
L 135.260118 244.358818 
L 146.889111 241.218649 
L 158.518104 237.957983 
L 170.147096 201.881193 
L 181.776089 162.724027 
L 193.405081 155.51607 
L 205.034074 153.570575 
L 216.663067 152.286753 
L 228.292059 197.372284 
L 239.921052 240.539068 
L 251.550045 233.797916 
L 263.179037 244.023451 
L 274.80803 236.146916 
L 286.437022 223.17285 
L 298.066015 217.219144 
L 309.695008 225.071491 
L 321.324 207.542224 
L 332.952993 210.229909 
L 344.581986 216.16677 
L 356.210978 227.664656 
L 367.839971 235.038206 
L 379.468963 248.031475 
L 391.097956 231.232689 
L 402.726949 239.49011 
L 414.355941 229.541898 
L 425.984934 214.605215 
L 437.613927 226.572107 
L 449.242919 250.391847 
L 460.871912 227.769422 
L 472.500904 237.424648 
L 484.129897 250.308253 
L 495.75889 248.28318 
L 507.387882 254.696881 
L 519.016875 276.546851 
L 530.645868 276.617991 
L 542.27486 279.211414 
L 553.903853 275.883989 
L 565.532846 267.68133 
L 577.161838 265.077596 
L 588.790831 254.789066 
L 600.419823 246.792638 
L 612.048816 244.015928 
L 623.677809 249.053153 
L 635.306801 248.862392 
L 646.935794 252.696655 
L 658.564787 254.14812 
L 670.193779 249.882845 
L 681.822772 248.343686 
L 693.451764 243.875834 
L 705.080757 247.023577 
L 716.70975 246.484139 
L 728.338742 253.76553 
L 739.967735 255.769637 
L 751.596728 244.298524 
L 763.22572 244.056627 
L 774.854713 245.110983 
L 786.483705 249.991876 
L 798.112698 255.671501 
L 809.741691 266.383674 
L 821.370683 266.214884 
L 832.999676 262.764917 
L 844.628669 257.790786 
L 856.257661 247.48582 
L 867.886654 258.802969 
L 879.515646 262.387296 
L 891.144639 265.697428 
L 902.773632 266.497516 
L 914.402624 273.689165 
L 926.031617 269.350816 
L 937.66061 266.117454 
L 949.289602 272.244281 
" clip-path="url(#pb1f982935d)" style="fill: none; stroke: #c06c84; stroke-width: 2.5; stroke-linecap: square"/>
   </g>
   <g id="text_20">
    <!-- "Amore" at Sanremo (1951–2025) -->
    <g style="fill: #2a363b" transform="translate(358.721484 20.117344) scale(0.17 -0.17)">
     <defs>
      <path id="DejaVuSerif-Bold-22" d="M 1350 4666 
L 1350 2931 
L 609 2931 
L 609 4666 
L 1350 4666 
z
M 2725 4666 
L 2725 2931 
L 1984 2931 
L 1984 4666 
L 2725 4666 
z
" transform="scale(0.015625)"/>
      <path id="DejaVuSerif-Bold-41" d="M -50 0 
L -50 378 
L 331 378 
L 2088 4666 
L 2834 4666 
L 4594 378 
L 5038 378 
L 5038 0 
L 2853 0 
L 2853 378 
L 3309 378 
L 2925 1331 
L 1172 1331 
L 781 378 
L 1338 378 
L 1338 0 
L -50 0 
z
M 1325 1709 
L 2772 1709 
L 2053 3494 
L 1325 1709 
z
" transform="scale(0.015625)"/>
      <path id="DejaVuSerif-Bold-6d" d="M 3884 2778 
Q 4116 3109 4384 3261 
Q 4653 3413 5013 3413 
Q 5584 3413 5867 3089 
Q 6150 2766 6150 2113 
L 6150 378 
L 6625 378 
L 6625 0 
L 4647 0 
L 4647 378 
L 5044 378 
L 5044 1947 
Q 5044 2569 4948 2731 
Q 4853 2894 4594 2894 
Q 4300 2894 4137 2667 
Q 3975 2441 3975 2022 
L 3975 378 
L 4372 378 
L 4372 0 
L 2472 0 
L 2472 378 
L 2869 378 
L 2869 1947 
Q 2869 2569 2772 2731 
Q 2675 2894 2419 2894 
Q 2122 2894 1959 2667 
Q 1797 2441 1797 2022 
L 1797 378 
L 2194 378 
L 2194 0 
L 219 0 
L 219 378 
L 691 378 
L 691 2944 
L 219 2944 
L 219 3322 
L 1797 3322 
L 1797 2853 
Q 1991 3144 2241 3278 
Q 2491 3413 2834 3413 
Q 3241 3413 3494 3258 
Q 3747 3103 3884 2778 
z
" transform="scale(0.015625)"/>
      <path id="DejaVuSerif-Bold-6f" d="M 2138 263 
Q 2488 263 2630 563 
Q 2772 863 2772 1663 
Q 2772 2463 2631 2761 
Q 2491 3059 2138 3059 
Q 1784 3059 1640 2757 
Q 1497 2456 1497 1663 
Q 1497 869 1640 566 
Q 1784 263 2138 263 
z
M 2138 -91 
Q 1259 -91 761 376 
Q 263 844 263 1663 
Q 263 2484 761 2948 
Q 1259 3413 2138 3413 
Q 3019 3413 3516 2948 
Q 4013 2484 4013 1663 
Q 4013 844 3514 376 
Q 3016 -91 2138 -91 
z
" transform="scale(0.015625)"/>
      <path id="DejaVuSerif-Bold-72" d="M 3438 3359 
L 3438 2369 
L 3084 2369 
Q 3066 2634 2941 2764 
Q 2816 2894 2578 2894 
Q 2216 2894 2006 2575 
Q 1797 2256 1797 1691 
L 1797 378 
L 2400 378 
L 2400 0 
L 219 0 
L 219 378 
L 691 378 
L 691 2944 
L 184 2944 
L 184 3322 
L 1797 3322 
L 1797 2731 
Q 1959 3078 2226 3245 
Q 2494 3413 2881 3413 
Q 2978 3413 3117 3398 
Q 3256 3384 3438 3359 
z
" transform="scale(0.015625)"/>
      <path id="DejaVuSerif-Bold-65" d="M 2566 1875 
Q 2566 2531 2444 2795 
Q 2322 3059 2028 3059 
Q 1744 3059 1620 2800 
Q 1497 2541 1497 1931 
L 1497 1875 
L 2566 1875 
z
M 3781 1503 
L 1497 1503 
L 1497 1478 
Q 1497 834 1690 548 
Q 1884 263 2316 263 
Q 2675 263 2897 453 
Q 3119 644 3181 1006 
L 3700 1006 
Q 3566 441 3166 175 
Q 2766 -91 2047 -91 
Q 1184 -91 723 364 
Q 263 819 263 1663 
Q 263 2488 734 2950 
Q 1206 3413 2047 3413 
Q 2872 3413 3312 2927 
Q 3753 2441 3781 1503 
z
" transform="scale(0.015625)"/>
      <path id="DejaVuSerif-Bold-20" transform="scale(0.015625)"/>
      <path id="DejaVuSerif-Bold-61" d="M 3525 2041 
L 3525 378 
L 4000 378 
L 4000 0 
L 2419 0 
L 2419 422 
Q 2200 159 1931 34 
Q 1663 -91 1319 -91 
Q 809 -91 536 182 
Q 263 456 263 966 
Q 263 1525 655 1803 
Q 1047 2081 1838 2081 
L 2419 2081 
L 2419 2278 
Q 2419 2681 2228 2873 
Q 2038 3066 1638 3066 
Q 1306 3066 1126 2930 
Q 947 2794 872 2484 
L 519 2484 
L 519 3200 
Q 816 3306 1134 3359 
Q 1453 3413 1806 3413 
Q 2697 3413 3111 3081 
Q 3525 2750 3525 2041 
z
M 2419 1044 
L 2419 1709 
L 2003 1709 
Q 1694 1709 1528 1540 
Q 1363 1372 1363 1056 
Q 1363 741 1483 584 
Q 1603 428 1850 428 
Q 2106 428 2262 597 
Q 2419 766 2419 1044 
z
" transform="scale(0.015625)"/>
      <path id="DejaVuSerif-Bold-74" d="M 634 2944 
L 153 2944 
L 153 3322 
L 634 3322 
L 634 4353 
L 1741 4353 
L 1741 3322 
L 2663 3322 
L 2663 2944 
L 1741 2944 
L 1741 909 
Q 1741 475 1809 369 
Q 1878 263 2059 263 
Q 2259 263 2356 397 
Q 2453 531 2459 813 
L 2925 813 
Q 2897 313 2651 111 
Q 2406 -91 1806 -91 
Q 1122 -91 878 123 
Q 634 338 634 909 
L 634 2944 
z
" transform="scale(0.015625)"/>
      <path id="DejaVuSerif-Bold-53" d="M 494 225 
L 494 1331 
L 891 1331 
Q 981 806 1318 547 
Q 1656 288 2253 288 
Q 2738 288 2991 472 
Q 3244 656 3244 1013 
Q 3244 1294 3072 1450 
Q 2900 1606 2363 1741 
L 1663 1913 
Q 978 2088 700 2398 
Q 422 2709 422 3284 
Q 422 3978 883 4364 
Q 1344 4750 2175 4750 
Q 2584 4750 3026 4681 
Q 3469 4613 3944 4475 
L 3944 3444 
L 3547 3444 
Q 3456 3925 3150 4148 
Q 2844 4372 2278 4372 
Q 1816 4372 1580 4211 
Q 1344 4050 1344 3731 
Q 1344 3441 1506 3289 
Q 1669 3138 2303 2975 
L 3003 2803 
Q 3653 2641 3945 2297 
Q 4238 1953 4238 1350 
Q 4238 644 3750 276 
Q 3263 -91 2316 -91 
Q 1859 -91 1409 -12 
Q 959 66 494 225 
z
" transform="scale(0.015625)"/>
      <path id="DejaVuSerif-Bold-6e" d="M 219 0 
L 219 378 
L 691 378 
L 691 2944 
L 219 2944 
L 219 3322 
L 1797 3322 
L 1797 2853 
Q 1997 3150 2253 3281 
Q 2509 3413 2900 3413 
Q 3459 3413 3745 3083 
Q 4031 2753 4031 2113 
L 4031 378 
L 4506 378 
L 4506 0 
L 2522 0 
L 2522 378 
L 2925 378 
L 2925 2144 
Q 2925 2566 2817 2730 
Q 2709 2894 2444 2894 
Q 2109 2894 1953 2648 
Q 1797 2403 1797 1869 
L 1797 378 
L 2203 378 
L 2203 0 
L 219 0 
z
" transform="scale(0.015625)"/>
      <path id="DejaVuSerif-Bold-28" d="M 2694 -997 
Q 1641 -606 1122 122 
Q 603 850 603 1931 
Q 603 3013 1115 3731 
Q 1628 4450 2694 4863 
L 2694 4488 
Q 2200 4188 1983 3598 
Q 1766 3009 1766 1931 
Q 1766 856 1983 267 
Q 2200 -322 2694 -622 
L 2694 -997 
z
" transform="scale(0.015625)"/>
      <path id="DejaVuSerif-Bold-31" d="M 878 0 
L 878 378 
L 1753 378 
L 1753 4153 
L 781 3578 
L 781 4044 
L 1953 4750 
L 2938 4750 
L 2938 378 
L 3816 378 
L 3816 0 
L 878 0 
z
" transform="scale(0.015625)"/>
      <path id="DejaVuSerif-Bold-39" d="M 2181 4384 
Q 1859 4384 1723 4111 
Q 1588 3838 1588 3163 
Q 1588 2488 1723 2214 
Q 1859 1941 2181 1941 
Q 2503 1941 2640 2214 
Q 2778 2488 2778 3163 
Q 2778 3838 2640 4111 
Q 2503 4384 2181 4384 
z
M 2878 1900 
Q 2672 1734 2420 1651 
Q 2169 1569 1875 1569 
Q 1163 1569 755 1986 
Q 347 2403 347 3138 
Q 347 3913 803 4331 
Q 1259 4750 2106 4750 
Q 3063 4750 3556 4172 
Q 4050 3594 4050 2478 
Q 4050 1206 3503 557 
Q 2956 -91 1881 -91 
Q 1600 -91 1278 -44 
Q 956 3 588 97 
L 588 922 
L 966 922 
Q 1044 603 1261 439 
Q 1478 275 1825 275 
Q 2375 275 2625 658 
Q 2875 1041 2878 1900 
z
" transform="scale(0.015625)"/>
      <path id="DejaVuSerif-Bold-35" d="M 3609 4666 
L 3609 3847 
L 1113 3847 
L 1113 2822 
Q 1319 2981 1572 3062 
Q 1825 3144 2106 3144 
Q 2969 3144 3469 2708 
Q 3969 2272 3969 1522 
Q 3969 759 3469 334 
Q 2969 -91 2069 -91 
Q 1688 -91 1311 -28 
Q 934 34 525 166 
L 525 1184 
L 900 1184 
Q 919 725 1139 500 
Q 1359 275 1791 275 
Q 2250 275 2472 583 
Q 2694 891 2694 1522 
Q 2694 2144 2476 2451 
Q 2259 2759 1819 2759 
Q 1581 2759 1395 2661 
Q 1209 2563 1050 2356 
L 738 2356 
L 738 4666 
L 3609 4666 
z
" transform="scale(0.015625)"/>
      <path id="DejaVuSerif-Bold-2013" d="M 344 2075 
L 2856 2075 
L 2856 1325 
L 344 1325 
L 344 2075 
z
" transform="scale(0.015625)"/>
      <path id="DejaVuSerif-Bold-32" d="M 844 3513 
L 469 3513 
L 469 4519 
Q 850 4634 1223 4692 
Q 1597 4750 1978 4750 
Q 2869 4750 3367 4386 
Q 3866 4022 3866 3372 
Q 3866 2909 3591 2542 
Q 3316 2175 2541 1672 
L 1241 819 
L 3450 819 
L 3450 1369 
L 3878 1369 
L 3878 0 
L 428 0 
L 428 763 
L 1119 1241 
Q 2003 1850 2297 2278 
Q 2591 2706 2591 3278 
Q 2591 3819 2367 4101 
Q 2144 4384 1716 4384 
Q 1347 4384 1125 4161 
Q 903 3938 844 3513 
z
" transform="scale(0.015625)"/>
      <path id="DejaVuSerif-Bold-30" d="M 2228 275 
Q 2603 275 2742 615 
Q 2881 956 2881 2328 
Q 2881 3691 2742 4037 
Q 2603 4384 2228 4384 
Q 1853 4384 1714 4043 
Q 1575 3703 1575 2328 
Q 1575 956 1714 615 
Q 1853 275 2228 275 
z
M 2228 -91 
Q 1294 -91 797 532 
Q 300 1156 300 2328 
Q 300 3500 797 4125 
Q 1294 4750 2228 4750 
Q 3159 4750 3656 4125 
Q 4153 3500 4153 2328 
Q 4153 1156 3656 532 
Q 3159 -91 2228 -91 
z
" transform="scale(0.015625)"/>
      <path id="DejaVuSerif-Bold-29" d="M 325 -997 
L 325 -622 
Q 819 -322 1036 267 
Q 1253 856 1253 1931 
Q 1253 3009 1036 3598 
Q 819 4188 325 4488 
L 325 4863 
Q 1391 4450 1905 3731 
Q 2419 3013 2419 1931 
Q 2419 850 1898 122 
Q 1378 -606 325 -997 
z
" transform="scale(0.015625)"/>
     </defs>
     <use xlink:href="#DejaVuSerif-Bold-22"/>
     <use xlink:href="#DejaVuSerif-Bold-41" x="52.099609"/>
     <use xlink:href="#DejaVuSerif-Bold-6d" x="129.6875"/>
     <use xlink:href="#DejaVuSerif-Bold-6f" x="235.498047"/>
     <use xlink:href="#DejaVuSerif-Bold-72" x="302.197266"/>
     <use xlink:href="#DejaVuSerif-Bold-65" x="354.882812"/>
     <use xlink:href="#DejaVuSerif-Bold-22" x="418.505859"/>
     <use xlink:href="#DejaVuSerif-Bold-20" x="470.605469"/>
     <use xlink:href="#DejaVuSerif-Bold-61" x="505.419922"/>
     <use xlink:href="#DejaVuSerif-Bold-74" x="570.214844"/>
     <use xlink:href="#DejaVuSerif-Bold-20" x="616.40625"/>
     <use xlink:href="#DejaVuSerif-Bold-53" x="651.220703"/>
     <use xlink:href="#DejaVuSerif-Bold-61" x="723.4375"/>
     <use xlink:href="#DejaVuSerif-Bold-6e" x="788.232422"/>
     <use xlink:href="#DejaVuSerif-Bold-72" x="860.9375"/>
     <use xlink:href="#DejaVuSerif-Bold-65" x="913.623047"/>
     <use xlink:href="#DejaVuSerif-Bold-6d" x="977.246094"/>
     <use xlink:href="#DejaVuSerif-Bold-6f" x="1083.056641"/>
     <use xlink:href="#DejaVuSerif-Bold-20" x="1149.755859"/>
     <use xlink:href="#DejaVuSerif-Bold-28" x="1184.570312"/>
     <use xlink:href="#DejaVuSerif-Bold-31" x="1231.884766"/>
     <use xlink:href="#DejaVuSerif-Bold-39" x="1301.464844"/>
     <use xlink:href="#DejaVuSerif-Bold-35" x="1371.044922"/>
     <use xlink:href="#DejaVuSerif-Bold-31" x="1440.625"/>
     <use xlink:href="#DejaVuSerif-Bold-2013" x="1510.205078"/>
     <use xlink:href="#DejaVuSerif-Bold-32" x="1560.205078"/>
     <use xlink:href="#DejaVuSerif-Bold-30" x="1629.785156"/>
     <use xlink:href="#DejaVuSerif-Bold-32" x="1699.365234"/>
     <use xlink:href="#DejaVuSerif-Bold-35" x="1768.945312"/>
     <use xlink:href="#DejaVuSerif-Bold-29" x="1838.525391"/>
    </g>
   </g>
  </g>
 </g>
 <defs>
  <clipPath id="pb1f982935d">
   <rect x="45.716875" y="26.117344" width="946.6" height="284.68"/>
  </clipPath>
 </defs>
</svg>
